<svg width="118" height="118" viewBox="0 0 118 118" fill="none" xmlns="http://www.w3.org/2000/svg">
<path d="M112.721 26.1453C108.15 23.49 102.283 25.0722 99.6437 29.6697L91.1507 44.4713V32.2127C91.1507 30.9469 90.1295 29.9197 88.8713 29.9197C87.6108 29.9197 86.5919 30.9469 86.5919 32.2127V52.3915V52.4121L61.5573 96.0326C61.3978 96.3078 61.2998 96.6151 61.2656 96.9338L59.5515 112.928H5.44551V4.69619H86.5919V11.5753C86.5919 12.8411 87.6108 13.8684 88.8713 13.8684C90.1295 13.8684 91.1507 12.8411 91.1507 11.5753V2.40315C91.1507 1.13739 90.1295 0.110107 88.8713 0.110107H3.16611C1.90561 0.110107 0.886719 1.13739 0.886719 2.40315V115.221C0.886719 116.487 1.90561 117.514 3.16611 117.514H88.8713C90.1295 117.514 91.1507 116.487 91.1507 115.221V82.9921L116.226 39.3005C118.864 34.7029 117.293 28.8006 112.721 26.1453ZM65.4232 100.926L71.9947 104.742L64.418 110.309L65.4232 100.926ZM86.5919 112.928H68.5847L77.5108 106.367C77.7661 106.179 77.9804 105.939 78.1399 105.663L86.5919 90.9375V112.928ZM75.3317 101.385L66.645 96.3399L100.008 38.209L108.693 43.2537L75.3317 101.385ZM112.276 37.0074L110.972 39.2821L102.288 34.2374L103.592 31.9628C104.973 29.5551 108.048 28.7273 110.441 30.1169C112.837 31.5087 113.66 34.5998 112.276 37.0074Z" fill="#215A51"/>
<path d="M88.8713 29.9197C90.1295 29.9197 91.1507 30.9469 91.1507 32.2127V11.5753C91.1507 12.8411 90.1295 13.8684 88.8713 13.8684C87.6108 13.8684 86.5919 12.8411 86.5919 11.5753V32.2127C86.5919 30.9469 87.6108 29.9197 88.8713 29.9197Z" fill="#215A51"/>
<path d="M86.5919 52.3915V32.2127V11.5753V4.69619H5.44551V112.928H59.5515L61.2656 96.9338C61.2998 96.6151 61.3978 96.3078 61.5573 96.0326L86.5919 52.4121V52.3915Z" fill="#215A51"/>
<path d="M88.8722 19.6011C88.2704 19.6011 87.6846 19.8464 87.2606 20.2729C86.8367 20.6994 86.5928 21.291 86.5928 21.8941C86.5928 22.4995 86.8367 23.0888 87.2606 23.5153C87.6846 23.9418 88.2727 24.1872 88.8722 24.1872C89.4717 24.1872 90.0597 23.9418 90.4837 23.5153C90.9077 23.0888 91.1516 22.4972 91.1516 21.8941C91.1516 21.291 90.9077 20.6994 90.4837 20.2729C90.0597 19.8464 89.4739 19.6011 88.8722 19.6011Z" fill="#215A51"/>
<path d="M69.0419 24.4165H22.9981C21.7376 24.4165 20.7188 25.4438 20.7188 26.7095C20.7188 27.9753 21.7376 29.0026 22.9981 29.0026H69.0419C70.3001 29.0026 71.3213 27.9753 71.3213 26.7095C71.3213 25.4438 70.3001 24.4165 69.0419 24.4165Z" fill="white"/>
<path d="M69.0419 37.2576H22.9981C21.7376 37.2576 20.7188 38.2849 20.7188 39.5506C20.7188 40.8164 21.7376 41.8437 22.9981 41.8437H69.0419C70.3001 41.8437 71.3213 40.8164 71.3213 39.5506C71.3213 38.2849 70.3001 37.2576 69.0419 37.2576Z" fill="white"/>
<path d="M69.0418 50.0984H52.1173C50.8568 50.0984 49.8379 51.1257 49.8379 52.3914C49.8379 53.6572 50.8568 54.6845 52.1173 54.6845H69.0418C70.3 54.6845 71.3212 53.6572 71.3212 52.3914C71.3212 51.1257 70.3 50.0984 69.0418 50.0984Z" fill="white"/>
<path d="M71.3213 65.2325C71.3213 63.9667 70.3001 62.9395 69.0419 62.9395H22.9981C21.7376 62.9395 20.7188 63.9667 20.7188 65.2325C20.7188 66.4983 21.7376 67.5255 22.9981 67.5255H69.0419C70.3001 67.5255 71.3213 66.4983 71.3213 65.2325Z" fill="white"/>
<path d="M61.5198 78.0733C61.5198 76.8076 60.4987 75.7803 59.2404 75.7803H44.9942C43.7337 75.7803 42.7148 76.8076 42.7148 78.0733C42.7148 79.3391 43.7337 80.3664 44.9942 80.3664H59.2404C60.4987 80.3664 61.5198 79.3391 61.5198 78.0733Z" fill="white"/>
<path d="M22.9981 93.2077H43.0568C44.315 93.2077 45.3362 92.1804 45.3362 90.9146C45.3362 89.6489 44.315 88.6216 43.0568 88.6216H22.9981C21.7376 88.6216 20.7188 89.6489 20.7188 90.9146C20.7188 92.1804 21.7376 93.2077 22.9981 93.2077Z" fill="white"/>
<path d="M22.9981 54.6845H38.1926C39.4531 54.6845 40.472 53.6572 40.472 52.3914C40.472 51.1257 39.4531 50.0984 38.1926 50.0984H22.9981C21.7376 50.0984 20.7188 51.1257 20.7188 52.3914C20.7188 53.6572 21.7376 54.6845 22.9981 54.6845Z" fill="white"/>
<path d="M22.9981 80.3664H34.737C35.9952 80.3664 37.0164 79.3391 37.0164 78.0733C37.0164 76.8076 35.9952 75.7803 34.737 75.7803H22.9981C21.7376 75.7803 20.7188 76.8076 20.7188 78.0733C20.7188 79.3391 21.7376 80.3664 22.9981 80.3664Z" fill="white"/>
</svg>

