<svg width="358" height="493" viewBox="0 0 358 493" fill="none" xmlns="http://www.w3.org/2000/svg">
<g clip-path="url(#clip0_4957_3137)">
<path d="M165.894 3.09619C154.113 7.88242 140.81 30.7437 140.472 43.751C140.134 56.7583 149.266 70.8918 153.099 72.581C156.932 74.2703 189.457 87.6718 189.626 85.4757C190.697 73.7072 210.482 44.5393 202.253 30.5185C194.023 16.4976 184.496 3.8282 174.124 3.8282C169.22 3.8282 165.894 3.09619 165.894 3.09619Z" fill="#3D0C04"/>
<path d="M184.045 81.6464C180.662 78.3805 176.04 75.9593 174.8 65.3169C176.153 58.4473 183.988 48.4806 184.608 46.8477L158.509 39.3586C150.505 62.5578 140.64 64.6412 130.212 67.7382C124.801 66.7246 131.058 105.915 134.271 106.929C182.015 122.526 188.554 84.2929 184.045 81.6464Z" fill="#D8A798"/>
<path d="M178.408 64.8667C173.729 68.1889 161.385 87.0523 136.977 104.452C130.043 109.407 127.901 73.0315 126.098 68.5831C133.82 70.0471 143.008 62.6707 148.138 57.9971C154.113 52.5351 159.017 34.9668 159.355 34.1222C159.355 34.1222 179.479 60.6999 178.408 64.8667Z" fill="url(#paint0_linear_4957_3137)"/>
<path d="M42.8408 466.798C41.037 465.334 31.567 450.3 27.7339 439.77C27.7902 438.475 27.903 437.011 28.0721 435.322C30.045 417.81 56.2566 377.718 33.709 373.776C22.9425 371.918 19.3349 386.784 10.9922 422.596C9.01932 431.155 3.2133 431.268 1.24039 436.223C-0.845269 439.489 -0.281578 441.966 2.64961 445.232C6.99003 450.131 12.4578 452.834 15.1636 463.701C17.8693 474.569 19.1658 473.781 22.7734 476.033C25.1409 477.497 25.4791 478.398 28.7485 478.398C32.0179 478.398 29.0303 475.751 29.0303 475.751C29.0303 475.751 33.3144 478.567 36.7529 478.398C38.5567 478.285 38.5567 477.778 37.993 477.215C38.7822 477.497 39.6841 477.666 40.7551 477.666C42.8971 477.666 41.2061 476.427 39.3459 475.357C41.0933 476.145 43.2917 476.877 44.9264 476.596C47.0684 476.258 44.1373 473.668 41.8261 471.866C42.3334 472.204 42.8971 472.542 43.6299 472.936C47.463 475.132 49.1541 474.907 50.3379 472.204C51.0707 470.684 45.5465 468.938 42.8408 466.798Z" fill="#D8A798"/>
<path d="M135.793 196.123C128.184 206.99 82.8064 306.656 78.466 318.594C74.1256 330.531 67.5868 334.923 62.119 342.525C56.7076 350.183 32.7507 427.382 32.7507 427.382C32.7507 427.382 12.6269 426.312 11.5559 416.515C10.4285 406.717 19.1657 338.752 41.4879 307.783C55.6365 239.311 65.4448 213.184 80.6644 190.379C95.8841 167.518 135.793 196.123 135.793 196.123Z" fill="#4A75DD"/>
<path d="M151.578 468.375C152.423 468.431 153.1 468.206 153.156 467.418C153.213 466.911 152.818 466.46 152.367 466.179C155.58 464.264 148.534 464.771 146.279 462.519C144.363 460.604 136.189 457.395 129.819 454.016C129.481 452.665 129.087 450.919 128.579 448.667C124.69 431.493 134.836 386.896 112.176 390.613C101.409 392.358 103.608 399.735 107.497 436.335C108.005 440.953 106.539 445.626 104.961 449.906C104.848 450.075 104.735 450.187 104.679 450.356C100.789 457.62 100.789 464.377 104.679 466.291C108.568 468.206 112.909 465.785 121.082 470.627C129.312 475.47 133.145 475.47 137.993 475.47C142.841 475.47 146.787 477.328 149.21 475.47C150.225 474.682 149.549 473.837 148.365 473.105C149.549 473.386 150.676 473.386 151.522 472.823C152.48 472.148 152.311 471.585 151.578 471.134C152.029 471.021 152.48 470.74 153.213 469.952C153.833 469.276 152.818 468.769 151.578 468.375ZM146.73 469.67C147.294 469.726 147.745 469.783 148.196 469.895C147.576 469.783 147.068 469.726 146.73 469.67Z" fill="#D8A798"/>
<path d="M139.74 175.626C160.879 210.932 143.461 288.694 139.515 320.17C138.106 331.432 137.091 414.037 132.807 426.988C115.558 434.083 103.101 426.931 103.101 426.931C103.101 426.931 94.1942 359.98 105.637 334.416C106.032 333.459 107.554 251.699 108.174 217.182C108.85 180.638 108.625 190.829 108.174 175.119C107.836 163.463 139.74 175.626 139.74 175.626Z" fill="#4A75DD"/>
<path d="M138.331 338.921C140.473 321.69 156.087 275.855 157.553 230.921C158.962 205.751 156.82 205.019 159.526 183.284C159.526 183.284 163.246 185.874 157.327 186.55C152.423 205.019 149.097 206.933 149.661 226.641C150.958 271.519 135.456 305.98 134.272 317.58C132.469 336.049 125.761 333.177 126.381 337.232C127.564 345.227 126.324 416.064 123.506 430.141C126.493 429.69 130.101 428.733 133.201 427.494C137.598 414.487 136.922 350.183 138.331 338.921Z" fill="#6597EF"/>
<path d="M188.949 85.1382C201.012 107.267 202.816 144.825 208.115 158.396C209.806 162.675 204.113 161.042 204.113 161.042L192.106 159.353C192.106 159.353 174.857 126.807 175.421 119.599C176.041 112.448 188.949 85.1382 188.949 85.1382Z" fill="#CC9483"/>
<path d="M188.668 80.521C190.923 76.7483 197.744 88.01 200.619 103.326C202.535 113.461 205.41 135.591 205.41 135.591L183.257 139.195L183.708 119.993C183.764 120.05 186.301 84.5189 188.668 80.521Z" fill="#8ACDFF"/>
<path d="M174.914 120.894L188.386 87.053C192.614 93.1906 199.153 129.341 198.927 135.985C187.541 139.533 179.705 141.447 179.705 141.447L174.914 120.894Z" fill="#66BCF7"/>
<path d="M156.48 28.8299C154.507 34.2355 152.365 37.783 152.478 43.0197C152.591 53.662 156.536 62.8403 162.906 65.881C171.023 69.8226 179.873 66.7256 195.149 50.3961C207.663 36.9947 214.991 20.5525 196.108 7.93941C178.408 -3.8854 162.85 11.3179 156.48 28.8299Z" fill="#D8A798"/>
<path d="M183.426 15.935C175.76 13.4011 169.108 20.6649 162.795 26.8589C160.935 28.6608 153.663 26.0143 152.648 28.3792C151.126 22.5231 153.494 4.50437 171.532 0.675382C181.453 -1.46435 185.117 2.0831 185.117 2.0831L183.426 15.935Z" fill="#3D0C04"/>
<path d="M181.959 14.6398C189.062 22.8045 200.392 25.9015 198.757 38.1205C197.122 50.3394 191.147 58.7857 191.147 58.7857C191.147 58.7857 209.298 39.4156 207.832 22.8045C206.818 11.3739 193.177 1.01308 186.581 2.30818C179.986 3.65958 181.959 14.6398 181.959 14.6398Z" fill="#601F1A"/>
<path d="M159.806 27.4217C157.27 14.1328 151.126 27.3091 151.52 31.9264C151.971 37.6698 152.704 38.064 152.704 38.064L159.806 27.4217Z" fill="#D8A798"/>
<path d="M204.451 14.4143C208.51 19.5384 213.076 32.7146 207.101 50.6207C204.226 59.2923 204.902 81.2526 210.201 85.7573C212.681 87.8971 208.115 85.5884 206.199 84.8564C202.591 83.3924 203.324 80.3517 203.324 80.3517C203.324 80.3517 202.14 84.1244 204.226 86.2641C206.311 88.3475 198.927 86.7146 197.687 85.2505C196.052 83.3361 194.699 79.1692 194.699 79.1692C194.699 79.1692 194.079 88.5165 196.447 91.2193C198.476 93.5842 188.893 83.6739 189.175 80.3517C189.683 75.5092 187.315 65.7115 193.91 56.8147C200.505 47.9179 203.718 32.4894 199.378 25.9013C194.981 19.3132 204.451 14.4143 204.451 14.4143Z" fill="#601F1A"/>
<path d="M182.24 11.5988C181.395 15.8219 181.676 18.9752 186.355 23.5925C191.09 28.2098 196.783 42.1743 194.36 46.8479C197.516 41.3297 200.955 31.2505 197.178 24.2682C193.345 17.2859 182.24 11.5988 182.24 11.5988Z" fill="#601F1A"/>
<path d="M197.292 147.697C197.292 147.697 205.409 149.837 239.907 169.77C239.907 169.77 248.757 169.827 251.124 171.065C253.492 172.248 258.17 174.106 258.17 174.106C258.17 174.106 257.776 176.302 251.406 174.05C251.406 174.05 256.479 176.358 260.031 178.498C263.638 180.638 265.837 181.088 264.935 182.215C264.427 182.834 259.861 181.426 257.494 180.187C255.07 179.005 253.379 178.329 253.379 178.329C253.379 178.329 256.367 180.019 258.678 181.145C260.594 182.046 265.386 183.228 265.273 184.58C265.16 186.381 256.761 183.51 256.761 183.51L251.744 181.82C251.744 181.82 253.041 182.383 256.536 183.791C258.001 184.411 263.3 185.537 262.68 187.001C262.116 188.352 256.93 186.607 255.916 186.381C254.394 186.044 249.546 184.523 249.546 184.523C248.362 184.073 251.293 185.593 254.957 187.001C256.141 187.451 259.185 188.071 259.861 188.577C260.651 189.197 259.298 189.873 259.805 189.591C258.114 190.492 250.166 188.521 248.249 187.508C244.416 185.48 237.145 181.37 235.848 180.019C234.608 178.667 192.782 167.068 191.373 158.34L197.292 147.697Z" fill="#CC9483"/>
<path d="M137.259 64.5859C142.671 72.1876 145.602 79.7893 151.408 91.3888C158.285 105.128 176.098 105.86 181.509 92.8529C186.92 79.7893 180.213 74.5526 180.213 74.5526L190.021 80.8028C190.021 80.8028 190.19 98.6527 188.048 106.986C185.906 115.32 185.849 128.384 181.171 132.719C176.436 137.055 171.193 141.954 169.39 153.891C167.586 165.829 166.12 210.988 162.851 218.59C154.846 216.394 141.261 229.458 120.574 216.45C99.8866 203.387 77.7335 188.915 74.5205 191.055C85.5688 164.252 106.538 153.835 106.087 135.985C105.016 91.3888 116.234 69.3159 116.234 69.3159L137.259 64.5859Z" fill="#8ACDFF"/>
<path d="M209.411 191.055C210.313 190.098 202.477 182.553 200.956 181.483C199.208 180.3 192.951 175.289 195.77 174.838C198.081 174.501 200.561 175.401 202.139 174.782C203.774 174.106 202.365 172.586 200.899 172.417C196.897 171.854 193.966 169.151 191.711 169.151C189.456 169.151 187.596 168.25 185.341 167.856C183.537 167.518 156.255 147.641 152.478 144.206C147.799 134.69 133.989 100.173 127.45 85.4766C127.45 85.4766 109.243 84.9135 110.314 103.383C111.385 121.852 138.837 159.354 142.163 159.635C151.689 169.433 175.082 177.597 176.435 179.005C180.212 182.891 189.005 190.098 189.005 190.098C189.005 190.098 196.897 197.531 197.742 196.968C199.49 195.898 192.106 190.661 192.782 189.084C193.684 187.114 204.507 200.29 204.732 195.447C204.789 194.772 202.421 193.477 200.505 191.675C198.419 189.76 196.446 187.958 196.446 187.958C198.419 187.62 205.127 196.01 207.833 194.209C209.073 193.364 198.644 184.974 199.039 184.242C199.603 183.397 207.72 192.745 209.411 191.055Z" fill="#D8A798"/>
<path d="M107.608 78.0437C103.888 86.0395 104.17 98.4837 108.848 110.59C113.527 122.696 117.304 131.593 117.304 131.593C117.304 131.593 145.714 127.314 147.968 122.809C141.768 100.342 138.442 83.9561 134.327 77.7058C130.212 71.4556 123.561 68.3023 118.431 68.5275C113.245 68.7527 107.608 78.0437 107.608 78.0437Z" fill="#66BCF7"/>
<path d="M121.307 118.979C117.699 130.579 115.501 141.446 116.966 146.176C118.432 150.906 128.578 153.046 124.238 154.172C119.898 155.242 115.163 151.976 112.626 151.976C110.089 151.976 118.432 158.114 116.966 160.648C115.501 163.182 114.768 155.242 108.962 160.986C89.0637 180.863 99.943 205.019 98.8156 201.19C81.7921 195.052 74.5205 191.054 74.5205 191.054C74.5205 191.054 89.4019 164.984 102.818 147.922C111.273 137.167 102.085 105.522 107.891 98.652C113.697 91.7823 121.307 118.979 121.307 118.979Z" fill="#66BCF7"/>
<path d="M247.799 183.003C252.534 185.987 287.596 214.986 299.095 240.382C301.012 244.605 303.436 246.181 303.436 249.785C303.436 253.389 295.995 290.553 292.387 307.22C288.78 323.887 282.354 331.602 279.873 335.487C276.04 341.456 269.276 368.653 269.276 368.653L253.324 327.322L264.09 317.806C264.09 317.806 268.43 305.193 268.43 300.125C268.43 295.057 279.479 264.425 284.214 249.56C272.714 237.96 245.319 197.531 242.388 191.055C239.457 184.523 247.799 183.003 247.799 183.003Z" fill="#D8A798"/>
<path d="M244.98 193.082C240.245 190.548 236.299 188.295 236.13 185.93C235.961 183.566 233.255 164.139 236.074 162.225C238.949 160.254 239.907 160.366 242.387 164.871C244.416 168.475 246.615 182.721 250.955 186.043C255.352 189.309 244.98 193.082 244.98 193.082Z" fill="#D8A798"/>
<path d="M243.121 166.448C241.373 163.238 238.047 146.233 236.751 145.22C235.511 144.206 235.172 144.713 235.454 146.233C235.793 147.754 237.935 160.93 238.273 162.675C238.611 164.421 243.121 166.448 243.121 166.448Z" fill="#D8A798"/>
<path d="M239.682 164.364C239.4 159.691 236.976 146.627 235.454 146.683C233.876 146.796 235.792 154.679 235.792 154.679C235.792 154.679 234.609 151.47 234.383 153.328C234.101 155.073 235.06 167.067 235.398 168.587C235.68 170.164 239.682 164.364 239.682 164.364Z" fill="#D8A798"/>
<path d="M225.196 193.363C228.747 192.856 235.004 188.689 235.061 186.325C235.117 183.96 237.09 164.477 234.159 162.619C231.228 160.76 230.269 160.929 227.958 165.547C226.098 169.263 226.211 180.806 221.983 184.297C217.755 187.732 225.196 193.363 225.196 193.363Z" fill="#CC9483"/>
<path d="M227.339 167.124C228.974 163.802 231.848 146.064 233.201 145.163C234.329 144.375 234.667 144.488 234.385 146.064C234.159 147.641 232.243 161.38 231.961 163.182C231.736 164.928 227.339 167.124 227.339 167.124Z" fill="#CC9483"/>
<path d="M229.086 164.927C229.199 160.254 232.919 146.514 234.497 146.571C236.076 146.627 233.426 153.947 233.426 153.947C233.426 153.947 234.723 151.526 234.723 153.271C234.666 155.073 233.877 167.461 233.595 168.981C233.314 170.558 229.086 164.927 229.086 164.927Z" fill="#CC9483"/>
<path d="M223.391 182.947C218.656 185.931 187.315 220.617 173.504 241.113C170.912 244.942 169.164 246.913 169.164 250.517C169.164 254.121 176.041 294.888 179.705 311.556C183.313 328.223 189.739 334.811 192.219 338.753C196.052 344.721 201.125 368.652 201.125 368.652L217.078 327.322L206.311 317.806C206.311 317.806 203.662 301.927 203.662 296.859C203.662 291.791 196.39 263.862 191.712 248.997C200.393 236.665 226.548 196.292 229.423 189.76C232.297 183.285 223.391 182.947 223.391 182.947Z" fill="#CC9483"/>
<path d="M214.26 433.126C200.055 433.126 136.019 404.69 122.998 429.579C122.998 429.579 118.263 441.403 120.631 449.737C122.998 458.014 169.221 475.189 172.772 475.189C176.323 475.189 204.17 493.545 235.567 484.085C254.62 478.286 214.26 433.126 214.26 433.126Z" fill="#151823"/>
<path d="M263.751 433.126C277.956 433.126 341.992 404.69 355.013 429.579C355.013 429.579 359.748 441.403 357.38 449.737C355.013 458.014 308.79 475.189 305.239 475.189C301.688 475.189 267.302 492.363 235.905 482.903C216.909 477.103 263.751 433.126 263.751 433.126Z" fill="#151823"/>
<path d="M260.709 237.116C272.49 253.615 280.551 317.919 281.227 319.608C281.904 321.298 206.425 316.849 204.734 312.851C203.043 308.797 213.866 237.454 221.307 232.105C228.691 226.699 260.709 237.116 260.709 237.116Z" fill="#A0593A"/>
<path d="M264.034 304.968C259.581 304.968 253.324 301.195 251.351 295.789C249.209 287.062 248.927 270.788 248.927 268.705L238.781 267.917H238.611L227.112 268.818C227.112 271.07 227.112 289.821 222.828 298.83C220.066 302.547 215.387 304.912 211.836 304.912C206.481 304.912 202.817 298.098 198.702 304.968C198.702 304.968 207.27 334.474 209.018 342.469C210.822 350.465 204.114 396.019 205.015 399.735C205.241 400.58 225.196 404.409 237.935 403.789C250.674 404.409 273.617 396.92 273.786 396.019C274.688 392.302 281.114 344.947 282.241 331.039C282.861 322.874 283.594 304.405 283.594 304.405C280.945 299.168 269.389 304.968 264.034 304.968Z" fill="#D8A798"/>
<path d="M236.187 272.083H236.3H236.413L248.194 272.702C248.194 273.659 249.096 281.486 249.603 285.315C246.672 289.707 239.682 311.273 215.838 331.882C209.919 337.007 209.412 312.287 206.368 309.077C213.471 307.782 220.235 302.827 223.11 297.084C226.492 290.439 226.717 274.335 226.717 273.547L236.187 272.083Z" fill="url(#paint1_linear_4957_3137)"/>
<path d="M277.619 409.419C277.449 401.255 278.182 384.981 282.692 354.8C275.138 342.13 272.038 307.67 274.687 304.122L270.46 302.996C270.46 302.996 266.232 301.081 258.002 313.976C249.772 326.871 223.561 325.745 217.98 314.652C212.456 303.559 208.905 304.573 207.552 304.347C206.199 304.122 203.55 305.305 203.55 305.305C205.917 315.384 204.451 348.887 200.9 354.8C197.349 360.712 197.067 362.739 197.067 362.739C197.067 362.739 206.875 398.664 202.648 414.543C192.839 436.616 188.499 452.946 189.57 461.448C190.923 472.26 284.214 492.362 293.74 455.93C296.897 443.768 284.045 427.945 277.619 409.419Z" fill="#151823"/>
<path d="M172.208 435.49C192.558 440.558 241.486 470.345 250.956 469.951C260.426 469.557 255.24 465.615 263.414 463.476C269.276 461.955 268.6 466.516 278.07 466.122C287.54 465.728 297.517 462.631 302.308 463.588C302.646 463.645 302.985 463.87 303.21 464.151C307.776 464.771 314.597 465.334 313.751 469.05C312.737 473.555 305.803 470.852 304.338 470.908C308.847 472.203 314.54 473.161 312.511 474.681C310.82 476.033 306.761 475.582 305.634 475.469C307.043 475.695 312.906 476.596 311.158 477.722C309.129 478.961 304.45 478.229 304.45 478.229C304.45 478.229 310.313 479.636 308.903 480.593C307.438 481.551 302.477 481.1 302.477 481.1C302.477 481.1 306.592 482.001 305.465 482.958C304.732 483.578 300.166 484.197 297.404 483.69C296.953 483.859 296.502 483.972 296.051 483.972C288.949 484.254 266.514 486.393 243.91 484.986C221.306 483.578 165.219 475.695 158.905 467.699C152.592 459.703 172.208 435.49 172.208 435.49Z" fill="#CC9483"/>
<path d="M312.343 434.308C292.219 440.22 231.34 474.175 221.87 474.175C212.4 474.175 216.966 472.767 208.68 470.965C202.761 469.726 203.663 474.231 194.137 474.231C184.667 474.231 176.944 472.147 171.927 472.542C171.533 472.598 169.222 473.105 168.94 473.386C163.81 475.864 162.288 476.539 163.416 479.13C165.219 483.353 171.307 479.468 172.773 479.468C168.32 480.932 163.19 483.071 165.276 484.535C167.023 485.774 170.574 484.254 171.702 484.085C170.293 484.366 164.487 485.549 166.29 486.562C168.376 487.745 173.055 486.788 173.055 486.788C173.055 486.788 167.249 488.421 168.714 489.322C170.18 490.223 175.14 489.547 175.14 489.547C175.14 489.547 171.025 490.617 172.265 491.518C173.055 492.081 177.564 492.531 180.326 491.912C180.777 492.081 198.139 489.153 220.743 489.49C242.389 489.772 324.236 470.965 330.155 462.688C336.018 454.41 312.343 434.308 312.343 434.308Z" fill="#D8A798"/>
<path d="M268.768 372.481C265.217 383.124 263.3 409.307 264.597 412.46C265.95 415.557 271.136 436.279 272.883 434.984C274.687 433.633 285.341 428.34 285.341 428.34C285.341 428.34 275.645 415.445 276.603 402.438C277.505 389.993 279.422 368.371 279.422 368.371L268.768 372.481Z" fill="#282A35"/>
<path d="M272.658 322.029C272.658 339.203 273.109 351.309 273.109 359.024C273.109 366.681 262.568 368.652 253.437 367.751C244.248 366.85 219.051 368.652 216.402 370.116C213.753 371.58 205.748 376.93 216.684 374.846C227.676 372.763 267.078 367.132 269.727 374.565C272.377 381.941 278.915 376.029 279.648 374.114C280.381 372.2 281.565 355.645 281.565 355.645L272.658 322.029Z" fill="#282A35"/>
<path d="M311.89 432.225C317.808 427.777 341.089 419.218 347.909 423.61C354.73 428.058 360.931 440.503 356.196 448.498C352.475 434.759 346.838 429.691 340.356 431.212C333.817 432.676 321.247 440.109 321.247 440.109L311.89 432.225Z" fill="#282A35"/>
<path d="M139.288 422.202C148.477 422.483 172.152 433.464 175.139 435.828C175.139 435.828 166.571 442.079 165.387 445.007C149.097 430.535 133.37 423.384 125.985 428.114C136.075 421.019 139.288 422.202 139.288 422.202Z" fill="#282A35"/>
<path d="M216.74 261.779C218.882 278.221 227.901 288.92 235.849 288.92C244.699 288.92 255.014 283.064 258.453 262.061C261.215 244.774 258.453 224.503 236.807 224.503C216.514 224.503 214.485 244.605 216.74 261.779Z" fill="#D8A798"/>
<path d="M236.639 237.341C242.276 236.44 248.871 237.059 252.422 248.884C255.635 259.583 268.938 331.151 243.798 350.69C252.93 348.269 261.441 343.201 263.696 330.025C259.75 341.85 252.422 350.352 252.422 350.352C252.422 350.352 269.559 341.005 271.193 328.673C268.375 337.007 263.302 344.778 263.302 344.778C263.302 344.778 269.108 343.595 275.139 328.223C281.621 311.668 277.225 266.283 268.149 243.76C260.089 223.714 243.741 218.365 235.061 222.306C233.99 227.205 236.639 237.341 236.639 237.341Z" fill="#BA784A"/>
<path d="M238.33 231.71C239.457 231.091 243.234 230.021 245.827 231.766C249.66 234.357 260.032 239.424 260.032 280.023C260.032 320.621 253.832 335.318 250.449 339.034C250.449 339.034 260.878 326.759 262.005 291.397C263.132 256.092 257.665 239.819 246.447 230.922C242.389 227.712 237.315 231.372 237.315 231.372L238.33 231.71Z" fill="#A0593A"/>
<path d="M237.709 227.542C241.486 226.698 247.348 225.346 251.858 229.739C256.367 234.131 289.738 280.135 252.816 345.96C252.816 345.96 254.958 345.284 259.186 336.331C263.413 327.321 277.506 301.645 269.332 265.663C261.159 229.682 249.039 224.896 244.812 225.121C240.584 225.403 237.709 227.542 237.709 227.542Z" fill="#A0593A"/>
<path d="M236.695 237.454C231.058 236.553 224.463 237.172 220.911 248.997C217.642 259.696 211.611 332.672 230.945 351.535C222.49 346.861 211.892 343.314 209.638 330.138C213.584 341.963 220.911 350.465 220.911 350.465C220.911 350.465 203.775 341.118 202.084 328.843C204.903 337.176 209.976 344.947 209.976 344.947C209.976 344.947 204.17 343.764 198.138 328.392C191.656 311.837 196.278 267.748 205.354 245.281C213.414 225.235 229.536 218.534 238.16 222.476C239.344 227.374 236.695 237.454 236.695 237.454Z" fill="#A0593A"/>
<path d="M235.003 231.878C233.875 231.259 230.042 230.189 227.506 231.935C223.673 234.581 213.301 239.593 213.301 280.191C213.301 320.79 219.501 335.486 222.883 339.203C222.883 339.203 212.455 326.927 211.328 291.565C210.2 256.204 215.668 239.987 226.886 231.09C230.944 227.824 236.017 231.54 236.017 231.54L235.003 231.878Z" fill="#BA784A"/>
<path d="M238.104 229.457C234.327 228.613 228.465 227.261 223.899 231.653C219.39 236.045 186.019 282.05 222.941 347.874C222.941 347.874 220.799 347.199 216.571 338.189C212.344 329.18 198.251 303.503 206.425 267.522C214.598 231.541 226.718 226.754 230.945 226.98C235.173 227.318 238.104 229.457 238.104 229.457Z" fill="#BA784A"/>
<path d="M236.92 234.637C234.271 234.412 228.916 235.313 223.392 241.957C217.811 248.602 216.74 326.533 225.59 342.525C216.91 322.76 213.584 267.972 217.811 250.178C222.039 232.441 227.169 231.54 231.396 231.765C235.624 231.934 236.92 234.637 236.92 234.637Z" fill="#BA784A"/>
</g>
<defs>
<linearGradient id="paint0_linear_4957_3137" x1="139.178" y1="80.8071" x2="180.481" y2="36.7862" gradientUnits="userSpaceOnUse">
<stop offset="0.25" stop-color="#D8A798"/>
<stop offset="0.6429" stop-color="#B16E59"/>
</linearGradient>
<linearGradient id="paint1_linear_4957_3137" x1="213.967" y1="343.902" x2="238.199" y2="262.584" gradientUnits="userSpaceOnUse">
<stop offset="0.25" stop-color="#D8A798"/>
<stop offset="0.6429" stop-color="#CA8D7B"/>
</linearGradient>
<clipPath id="clip0_4957_3137">
<rect width="358" height="492.25" fill="white"/>
</clipPath>
</defs>
</svg>
