<svg width="225" height="383" viewBox="0 0 225 383" fill="none" xmlns="http://www.w3.org/2000/svg">
<g clip-path="url(#clip0_4957_3217)">
<path d="M145.334 329.266L154.485 366.145L170.984 365.233L163.571 328.136L145.334 329.266Z" fill="#CAB6FC"/>
<path d="M170.985 363.604L183.788 371.01L192.265 372.769C196.156 373.573 199.069 376.853 199.373 380.827L199.525 382.674L152.399 382.304L153.834 363.495L170.985 363.604Z" fill="#7681FA"/>
<path d="M152.225 382.63L199.72 382.999L199.742 378.916L152.246 378.547L152.225 382.63Z" fill="black"/>
<path d="M94.5772 329.266L93.6208 366.145L77.1224 365.233L76.3398 328.136L94.5772 329.266Z" fill="#CAB6FC"/>
<path d="M77.1227 363.604L64.3196 371.01L55.8422 372.769C51.9513 373.573 49.0385 376.853 48.7342 380.827L48.582 382.674L95.7079 382.304L94.2733 363.495L77.1227 363.604Z" fill="#7681FA"/>
<path d="M95.8817 382.63L48.3862 382.999L48.3428 378.916L95.8382 378.547L95.8817 382.63Z" fill="black"/>
<path d="M78.7307 141.154C78.7307 141.154 59.2109 153.664 60.1238 187.721C60.9281 217.845 68.9273 325.943 72.7096 350.551C73.1661 353.44 75.6441 355.568 78.5786 355.568H94.2944C97.642 355.568 100.337 352.81 100.229 349.465L103.815 195.257L144.811 350.225C145.616 353.374 148.463 355.59 151.724 355.59H165.505C169.896 355.59 173.243 351.659 172.548 347.315L150.224 209.396C150.224 209.396 139.725 151.514 126.335 141.154H78.7307Z" fill="#CAB6FC"/>
<path d="M103.794 195.257V181.878L116.358 165.024" stroke="#AC99E6" stroke-width="0.7575" stroke-miterlimit="10"/>
<path d="M86.382 142.827C86.382 142.827 70.9921 152.883 70.8182 204.944C70.6444 257.005 78.5784 355.568 78.5784 355.568" stroke="#FCFFFC" stroke-width="0.7575" stroke-miterlimit="10"/>
<path d="M76.9268 355.568H94.2729" stroke="#FCFFFC" stroke-width="0.7575" stroke-miterlimit="10"/>
<path d="M152.224 355.568H168.657" stroke="#FCFFFC" stroke-width="0.7575" stroke-miterlimit="10"/>
<path d="M47.4866 181.359L8.27246 185.484L9.25564 194.815L48.4697 190.69L47.4866 181.359Z" fill="#DC6D75"/>
<path d="M11.0206 200.318L3.63005 201.1C2.73883 201.187 1.93456 200.535 1.82587 199.645L-3.56832e-05 182.334C-0.0869838 181.444 0.565127 180.64 1.45635 180.531L8.84694 179.75C9.73815 179.663 10.5424 180.314 10.6511 181.205L12.477 198.515C12.5857 199.406 11.9336 200.209 11.0206 200.318Z" fill="#DC6D75"/>
<path d="M51.8644 196.017L44.4738 196.799C43.5826 196.886 42.7783 196.235 42.6696 195.344L40.8437 178.034C40.7568 177.143 41.4089 176.34 42.3001 176.231L49.6907 175.449C50.5819 175.362 51.3862 176.014 51.4949 176.904L53.3208 194.215C53.4077 195.105 52.7556 195.909 51.8644 196.017Z" fill="#DC6D75"/>
<path d="M89.4913 89.614C89.4913 89.614 87.7524 62.5082 68.6673 72.8901L31.41 105.621C26.454 109.118 25.1715 115.916 28.5407 120.955L38.1485 130.555L89.4913 89.614Z" fill="#E9BDA0"/>
<path d="M46.7123 120.955L29.9313 181.314L18.2803 178.772L25.5622 114.917C26.9534 106.49 36.5176 101.538 43.7561 106.077C48.7773 109.227 49.0816 115.525 46.7123 120.955Z" fill="#E9BDA0"/>
<path d="M38.3871 182.595C40.7347 189.067 37.3655 196.191 30.9096 198.537C24.432 200.882 17.3022 197.516 14.9546 191.065C12.607 184.593 15.9762 177.469 22.4321 175.123C28.9098 172.777 36.0395 176.122 38.3871 182.595Z" fill="#E9BDA0"/>
<path d="M219.315 58.9227L182.341 45.2394L179.08 54.0377L216.054 67.7209L219.315 58.9227Z" fill="#DC6D75"/>
<path d="M178.244 59.7715L171.266 57.1869C170.418 56.8828 169.984 55.9271 170.31 55.0801L176.353 38.7688C176.657 37.9217 177.613 37.4873 178.461 37.8131L185.439 40.3977C186.286 40.7018 186.721 41.6575 186.395 42.5045L180.352 58.8158C180.026 59.6411 179.091 60.0755 178.244 59.7715Z" fill="#DC6D75"/>
<path d="M216.762 74.0194L209.785 71.4348C208.937 71.1308 208.502 70.1751 208.828 69.328L214.871 53.0168C215.175 52.1697 216.132 51.7353 216.98 52.0611L223.957 54.6457C224.805 54.9498 225.24 55.9054 224.914 56.7525L218.871 73.0638C218.545 73.9108 217.61 74.3235 216.762 74.0194Z" fill="#DC6D75"/>
<path d="M158.289 124.147L121.771 90.6126L122.531 69.1755C122.531 69.1755 130.009 65.1575 140.573 75.2353H140.595C140.595 75.2353 141.616 76.2126 142.073 76.7122L172.07 111.507L158.289 124.147Z" fill="#E9BDA0"/>
<path d="M157.919 105.512L193.633 55.1451L202.784 61.2917L176.961 120.151C172.157 128.144 160.745 128.665 155.224 121.15C151.398 115.916 153.333 110.052 157.919 105.512Z" fill="#E9BDA0"/>
<path d="M209.328 52.6256C211.675 59.0979 208.306 66.2219 201.85 68.5676C195.372 70.9133 188.243 67.5468 185.895 61.0961C183.547 54.6238 186.917 47.4998 193.373 45.1541C199.85 42.8301 206.98 46.1749 209.328 52.6256Z" fill="#E9BDA0"/>
<path d="M116.358 68.481H123.858C123.858 68.481 136.052 82.0773 138.269 94.718C140.486 107.359 129.509 120.303 129.509 120.303L126.336 141.176H78.7316L72.8408 101.994C72.8408 101.994 84.6875 86.204 75.7971 70.4357L84.6006 70.1968L116.358 68.481Z" fill="#7681FA"/>
<path d="M78.7314 141.154H126.336" stroke="#FCFFFC" stroke-width="0.7575" stroke-miterlimit="10"/>
<path d="M89.8838 70.8705V50.8887H110.621V70.8705C110.621 76.5827 105.991 81.2307 100.252 81.2307C94.5355 81.2307 89.8838 76.5827 89.8838 70.8705Z" fill="#E9BDA0"/>
<path d="M89.1221 42.7654C89.1221 42.7654 91.4262 67.5038 110.62 66.0051L110.598 53.6251L89.1221 42.7654Z" fill="#CF9580"/>
<path d="M116.359 68.481L84.623 70.1751C84.623 70.1751 98.7521 85.4221 107.969 86.6167C107.969 86.6167 114.533 82.5117 116.359 68.481Z" fill="#E9BDA0"/>
<path d="M75.9062 34.3164C75.9062 34.3164 76.1453 23.9346 64.8855 25.0857C44.0397 27.2142 56.0386 58.9245 29.8672 53.9725C29.8672 53.9725 38.7576 70.8702 54.517 66.3743C70.2763 61.8784 75.4497 39.8766 75.4497 39.8766L75.9062 34.3164Z" fill="#0C1539"/>
<path d="M71.5152 24.217C71.5152 24.217 65.0376 26.0632 66.8852 32.4921C68.7329 38.9211 76.3191 39.7247 78.6232 36.5971C80.9273 33.4478 74.7758 24.2388 74.7758 24.2388L71.5152 24.217Z" fill="#7681FA"/>
<path d="M100.252 17.6576C100.252 17.6576 115.881 33.1001 128.423 24.7598C128.423 24.7598 129.879 -1.34688 97.8389 0.0431653C67.0158 1.38977 61.712 44.3942 86.3835 49.6068C106.642 53.8856 100.252 17.6576 100.252 17.6576Z" fill="#0C1539"/>
<path d="M130.467 37.574C130.51 41.2229 127.576 44.1985 123.924 44.2419C120.272 44.2853 117.294 41.3532 117.25 37.7044C117.207 34.0555 120.142 31.0799 123.793 31.0365C127.445 31.0148 130.423 33.9252 130.467 37.574Z" fill="#CF9580"/>
<path d="M106.882 60.9662H106.143C95.3175 61.0748 86.4705 52.3871 86.3835 41.5708L86.1662 19.4822C86.1444 16.6804 88.3834 14.3998 91.1874 14.3781L116.968 14.1392C121.967 14.0958 126.054 18.1139 126.097 23.1093L126.271 41.2233C126.38 52.0178 117.685 60.8576 106.882 60.9662Z" fill="#E6BDA0"/>
<path d="M108.99 35.7283C108.925 36.5536 108.23 37.1835 107.404 37.1183C106.578 37.0532 105.947 36.3581 106.012 35.5328C106.078 34.7075 106.773 34.0776 107.599 34.1428C108.425 34.2079 109.034 34.9029 108.99 35.7283Z" fill="#1F2326"/>
<path d="M121.772 35.5544C121.706 36.3798 121.011 37.0096 120.185 36.9445C119.359 36.8793 118.728 36.1843 118.794 35.359C118.859 34.5336 119.554 33.9038 120.381 33.9689C121.207 34.0341 121.837 34.7291 121.772 35.5544Z" fill="#1F2326"/>
<path d="M115.924 37.7048L116.337 41.7229C116.337 41.7229 116.098 43.9817 112.859 43.1346" stroke="#CF9580" stroke-width="0.5612" stroke-miterlimit="10" stroke-linecap="round" stroke-linejoin="round"/>
<path d="M103.447 31.2543C103.534 31.276 103.621 31.276 103.73 31.276L110.49 30.9719C111.251 30.9285 111.838 30.2986 111.794 29.5385C111.751 28.7783 111.12 28.1919 110.36 28.2353L103.599 28.5394C102.839 28.5828 102.252 29.2127 102.295 29.9729C102.317 30.6462 102.817 31.1674 103.447 31.2543Z" fill="#0C1539"/>
<path d="M118.858 30.8414C118.945 30.8632 119.032 30.8632 119.141 30.8632L123.271 30.6677C124.032 30.6242 124.619 29.9944 124.575 29.2342C124.532 28.474 123.901 27.8876 123.141 27.931L119.011 28.1265C118.25 28.17 117.663 28.7998 117.706 29.56C117.728 30.2116 118.228 30.7546 118.858 30.8414Z" fill="#0C1539"/>
<path d="M107.056 44.4158C107.056 44.4158 107.664 48.8249 115.881 47.2176" stroke="#CF9580" stroke-width="0.5612" stroke-miterlimit="10" stroke-linecap="round" stroke-linejoin="round"/>
<path d="M92.8825 27.9307V37.1614L84.2311 37.2266L82.5791 13.118L110.642 10.6203C110.62 10.6203 109.185 26.28 92.8825 27.9307Z" fill="#0C1539"/>
<path d="M90.8396 37.1617C90.8831 40.8105 87.9486 43.7861 84.2968 43.8295C80.645 43.873 77.667 40.9409 77.6235 37.292C77.58 33.6431 80.5146 30.6676 84.1664 30.6241C87.8182 30.5807 90.7962 33.5345 90.8396 37.1617Z" fill="#E6BDA0"/>
<path d="M128.423 24.7818C128.423 24.7818 115.881 34.1211 99.7734 15.6814C99.7734 15.6814 109.316 5.88592 121.815 12.076C121.815 12.076 127.771 19.7429 128.423 24.7818Z" fill="#0C1539"/>
</g>
<defs>
<clipPath id="clip0_4957_3217">
<rect width="225" height="383" fill="white"/>
</clipPath>
</defs>
</svg>
