<svg width="319" height="298" viewBox="0 0 319 298" fill="none" xmlns="http://www.w3.org/2000/svg">
<g clip-path="url(#clip0_4957_3280)">
<path d="M151.392 289.475C235.004 289.475 302.785 275.971 302.785 259.313C302.785 242.655 235.004 229.152 151.392 229.152C67.7807 229.152 0 242.655 0 259.313C0 275.971 67.7807 289.475 151.392 289.475Z" fill="#ECEDEB"/>
<path d="M102.567 219.227C125.417 196.353 125.417 159.267 102.567 136.394C79.7168 113.52 42.6697 113.52 19.8198 136.394C-3.03016 159.267 -3.03016 196.353 19.8198 219.227C42.6697 242.101 79.7168 242.101 102.567 219.227Z" fill="#706F8E"/>
<path d="M107.682 221.085C130.532 198.212 130.532 161.126 107.682 138.252C84.8321 115.379 47.785 115.379 24.935 138.252C2.08507 161.126 2.08507 198.212 24.935 221.085C47.785 243.959 84.8321 243.959 107.682 221.085Z" fill="#393762"/>
<path d="M66.3064 202.91C79.1253 202.91 89.5171 192.508 89.5171 179.675C89.5171 166.843 79.1253 156.44 66.3064 156.44C53.4875 156.44 43.0957 166.843 43.0957 179.675C43.0957 192.508 53.4875 202.91 66.3064 202.91Z" fill="#706F8E"/>
<path d="M156.868 118.686C156.868 118.686 125.35 130.979 108.337 143.824C91.323 156.669 99.136 168.391 101.93 175.375C104.725 182.359 125.635 229.266 125.635 229.266C125.635 229.266 123.962 233.167 120.617 235.679C117.271 238.191 104.44 243.5 103.052 246.012C101.664 248.524 111.986 250.198 117.841 250.198C123.696 250.198 139.607 247.401 145.177 247.135C150.747 246.849 149.359 240.722 148.523 238.762C147.686 236.802 143.504 227.877 142.668 223.12C141.832 218.381 136.813 201.065 135.691 191.283C134.57 181.502 128.43 165.594 128.43 165.594C128.43 165.594 149.34 155.546 167.761 150.789C186.162 146.051 208.213 125.651 208.479 124.814C208.764 123.977 202.624 116.155 190.914 115.604C179.185 115.052 162.438 115.052 156.868 118.686Z" fill="#EAA888"/>
<path d="M125.635 229.266C125.635 229.266 123.962 233.167 120.617 235.679C117.271 238.191 104.439 243.5 103.052 246.012C101.664 248.524 111.986 250.198 117.841 250.198C123.696 250.198 139.607 247.401 145.177 247.134C150.747 246.849 149.359 240.722 148.523 238.762C148.219 238.038 147.458 236.383 146.584 234.347H134.646C131.376 226.982 125.635 229.266 125.635 229.266Z" fill="#DA5955"/>
<path d="M106.664 63.4059C106.664 63.4059 100.258 68.7151 100.524 71.227C100.809 73.7389 109.458 105.004 110.561 111.151C111.682 117.297 125.616 120.932 132.878 120.932C140.14 120.932 142.915 119.809 151.564 120.932C160.214 122.054 185.306 127.63 185.306 127.63C185.306 127.63 227.147 140.76 239.693 137.678C252.239 134.595 256.992 118.972 251.688 103.33C246.384 87.6874 237.735 79.3145 224.637 79.3145C211.521 79.3145 203.442 89.6474 192.283 84.3383C181.124 79.0291 174.984 73.168 166.62 66.1842C158.256 59.2004 144.854 50.2757 135.939 49.7048C127.004 49.1529 122.822 49.1529 122.822 49.1529C122.822 49.1529 108.622 57.8113 106.664 63.4059Z" fill="#DA5955"/>
<path d="M94.6684 1.12272C94.6684 1.12272 82.9585 2.24546 78.2061 13.9676C73.4727 25.6896 75.4117 32.388 77.0845 34.0626C78.7574 35.7372 77.0845 43.5582 77.0845 45.2328C77.0845 46.9074 81.2666 48.8674 81.2666 48.8674C81.2666 48.8674 85.7339 57.2403 87.1216 58.0776C88.5093 58.9149 91.855 57.5258 94.0981 57.2403C96.3222 56.9549 97.7289 56.403 97.7289 56.403L107.766 67.8587C107.766 67.8587 108.888 88.791 114.172 94.3857C119.476 99.9613 119.742 94.6711 118.906 87.4019C118.069 80.1327 120.864 65.6133 121.966 60.3231C123.069 55.0329 125.027 49.4383 125.027 49.4383C125.027 49.4383 119.457 46.0891 118.887 41.6172C118.335 37.1453 119.438 31.2843 121.396 28.487C123.354 25.6896 121.681 13.9676 117.499 5.59463C113.355 -2.7783 98.8505 0.570873 94.6684 1.12272Z" fill="#F6BA99"/>
<path d="M130.369 4.75734C124.247 3.65363 119.837 5.99424 118.221 7.05989C117.993 6.56513 117.765 6.07036 117.537 5.59463C113.355 -2.7783 98.8506 0.570873 94.6685 1.12272C94.6685 1.12272 82.9586 2.24546 78.2062 13.9676C77.807 14.9381 77.4838 15.8515 77.1797 16.7458C79.6509 14.9951 84.1942 12.5784 90.2013 13.1303C99.4019 13.9676 93.8321 24.8524 97.1778 26.8124C100.523 28.7724 98.2994 21.7886 105.276 23.1778C112.252 24.5669 110.846 32.1216 108.336 33.2253C105.827 34.348 104.706 35.1853 104.706 35.1853C104.706 35.1853 110.561 40.2091 115.864 40.2091C116.777 40.2091 117.784 39.9236 118.811 39.4859C118.773 36.8028 119.229 33.9103 120.008 31.5507C120.274 31.9122 120.579 32.1977 120.902 32.388C125.635 35.1853 134.285 33.5107 135.406 29.0388C136.509 24.5859 138.181 6.16551 130.369 4.75734Z" fill="#393762"/>
<path d="M145.158 54.1767C145.158 54.1767 139.588 53.3394 132.611 64.7951C125.635 76.2507 130.102 91.8739 141.546 98.0203C152.99 104.167 174.185 87.6874 174.452 82.3782C174.718 77.088 171.372 63.6723 145.158 54.1767Z" fill="#F6BA99"/>
<path d="M232.944 233.395C232.621 233.395 232.298 233.338 231.975 233.243L67.3517 181.007C65.6599 180.475 64.7094 178.648 65.2417 176.954C65.7739 175.241 67.5988 174.309 69.2907 174.842L233.895 227.077C235.587 227.61 236.537 229.437 236.005 231.131C235.568 232.501 234.313 233.395 232.944 233.395Z" fill="#393762"/>
<path d="M251.707 103.33C247.43 90.7322 241.004 82.854 231.804 80.2661C231.975 86.1652 231.576 94.9758 228.553 102.207C223.534 114.214 204.848 124.262 194.811 128.734C194.013 129.095 193.29 129.419 192.549 129.761C205.076 133.339 230.416 139.942 239.712 137.678C252.258 134.595 257.01 118.972 251.707 103.33Z" fill="#7EB9F5"/>
<path d="M234.693 101.084C234.693 101.084 205.133 108.068 184.203 123.139C172.437 131.626 160.632 149.324 165.384 164.433C168.635 174.728 170.726 185.365 172.95 195.946C176.448 212.615 179.812 229.304 183.082 246.012C183.082 246.012 174.147 250.484 169.699 253.833C165.251 257.182 154.644 259.409 157.704 263.329C160.765 267.23 191.18 264.451 196.199 263.614C201.217 262.777 204.563 260.55 204.848 258.876C205.133 257.201 199.354 244.033 198.708 240.17C198.157 236.821 194.241 226.202 193.689 196.897C193.556 189.837 194.811 177.906 192.568 172.33C190.344 166.754 188.386 161.997 188.386 161.997C188.386 161.997 230.511 146.355 242.772 137.43C255.052 128.486 256.155 113.967 251.707 105.328" fill="#7EB9F5"/>
<path d="M243.628 136.707C242.107 131.931 239.123 126.279 233.287 120.913C226.272 114.443 216.634 111.303 208.783 109.78C200.685 113.187 191.846 117.62 184.185 123.139C172.418 131.626 160.613 149.323 165.365 164.433C168.616 174.728 170.707 185.365 172.931 195.945C176.429 212.615 179.794 229.304 183.063 246.012C183.063 246.012 174.129 250.484 169.681 253.833C165.232 257.182 154.625 259.408 157.686 263.328C160.746 267.229 191.161 264.451 196.18 263.614C201.199 262.777 204.544 260.55 204.829 258.876C205.114 257.201 199.336 244.033 198.689 240.17C198.138 236.821 194.222 226.202 193.671 196.897C193.538 189.837 194.792 177.906 192.549 172.33C190.325 166.754 188.367 161.997 188.367 161.997C188.367 161.997 230.492 146.355 242.753 137.43C243.077 137.183 243.343 136.935 243.628 136.707Z" fill="#ECB393"/>
<path d="M196.199 263.595C201.217 262.758 204.563 260.531 204.848 258.857C205.133 257.182 199.354 244.014 198.708 240.151C198.575 239.314 198.233 238.039 197.776 236.155C195.894 236.669 193.879 237.03 191.731 237.087C186.903 237.22 183.386 236.364 180.972 235.432C181.675 238.952 182.379 242.492 183.082 246.012C183.082 246.012 174.147 250.484 169.699 253.833C165.251 257.182 154.644 259.409 157.704 263.329C160.765 267.23 191.18 264.432 196.199 263.595Z" fill="#F6BA99"/>
<path d="M190.895 247.134C189.222 243.233 183.082 246.012 183.082 246.012C183.082 246.012 174.147 250.484 169.699 253.833C165.251 257.182 154.644 259.408 157.704 263.328C160.765 267.229 191.18 264.451 196.199 263.614C201.217 262.776 204.563 260.55 204.848 258.875C205 257.962 203.384 253.699 201.768 249.361C199.316 250.598 196.598 251.606 194.26 251.606C188.386 251.587 192.568 251.035 190.895 247.134Z" fill="#DA5955"/>
<path d="M102.539 187.439C103.394 185.156 105.96 184.87 105.96 184.87C105.96 184.87 106.036 184.775 106.131 184.585C105.371 182.853 104.687 181.293 104.097 179.904C101.379 177.392 98.5086 176.535 97.7102 175.184C97.33 174.537 97.5961 170.789 98.4706 166.012C96.8167 160.075 97.0449 152.863 105.504 145.175C109.838 135.185 112.119 121.978 112.367 116.764C112.405 116.041 112.462 115.185 112.5 114.443C111.53 113.472 110.865 112.502 110.656 111.36C109.629 105.727 102.558 77.3924 100.885 70.2183C98.8508 72.8824 94.6306 78.9338 93.9843 83.6721C93.1289 89.9518 94.8397 99.3523 95.6952 104.776C96.5506 110.199 94.8397 126.736 93.1289 132.159C91.418 137.582 88.8517 149.552 89.422 155.261C89.9923 160.969 86.8557 181.502 86.2854 184.642C85.7151 187.782 87.426 190.351 90.5626 192.634C93.6992 194.918 98.5466 198.629 101.094 198.058C103.66 197.487 104.516 193.205 104.516 192.349C104.516 191.492 101.683 189.704 102.539 187.439Z" fill="#EAA888"/>
<path d="M258.333 294.562C295.071 287.355 319.017 251.7 311.818 214.923C304.619 178.147 269 154.176 232.262 161.383C195.523 168.59 171.577 204.245 178.777 241.022C185.976 277.798 221.595 301.769 258.333 294.562Z" fill="#706F8E"/>
<path d="M267.448 296.071C303.8 287.106 326.01 250.339 317.055 213.948C308.1 177.558 271.37 155.324 235.018 164.289C198.665 173.254 176.455 210.021 185.41 246.412C194.366 282.802 231.095 305.035 267.448 296.071Z" fill="#393762"/>
<path d="M251.232 257.087C266.087 257.087 278.13 245.031 278.13 230.16C278.13 215.289 266.087 203.234 251.232 203.234C236.376 203.234 224.333 215.289 224.333 230.16C224.333 245.031 236.376 257.087 251.232 257.087Z" fill="#706F8E"/>
<path d="M257.143 230.16C257.143 226.887 254.501 224.242 251.231 224.242C247.962 224.242 245.319 226.887 245.319 230.16C245.319 233.433 247.962 236.078 251.231 236.078C254.501 236.078 257.143 233.433 257.143 230.16Z" fill="#393762"/>
<path d="M136.508 65.0806C136.508 65.0806 128.695 68.1444 130.102 82.9492C131.49 97.7541 139.303 106.964 141.812 115.623C144.321 124.281 141.812 136.003 148.503 147.173C155.195 158.344 163.844 194.918 163.844 196.326C163.844 197.715 155.746 202.187 155.746 204.433C155.746 206.659 155.461 215.603 157.97 216.992C160.479 218.381 168.292 220.056 170.802 219.504C173.311 218.952 172.189 215.603 172.189 213.928C172.189 212.254 176.923 212.254 178.329 212.539C179.717 212.825 180.839 207.515 178.881 201.921C176.923 196.345 171.068 153.891 169.395 144.68C167.722 135.47 168.007 115.927 164.376 109.21C160.746 102.511 156.563 94.1385 156.278 89.1147C155.993 84.091 155.442 77.659 155.442 77.659" fill="#F6BA99"/>
</g>
<defs>
<clipPath id="clip0_4957_3280">
<rect width="319" height="298" fill="white"/>
</clipPath>
</defs>
</svg>
