<svg width="312" height="386" viewBox="0 0 312 386" fill="none" xmlns="http://www.w3.org/2000/svg">
<g clip-path="url(#clip0_4957_2997)">
<path d="M107.442 253.246L120.953 309.236C120.953 309.236 115.912 310.042 113.29 309.397C110.709 308.752 95.0202 280.958 94.5362 268.655C94.0523 256.352 107.442 253.246 107.442 253.246Z" fill="#CC9483"/>
<path d="M82.1941 178.296L87.0742 196.005C87.0742 196.005 103.449 231.14 104.699 233.439C106.393 236.626 108.409 239.288 109.055 250.099L112.765 271.196C112.765 271.196 97.8022 274.181 96.31 277.328C91.3089 266.073 88.1631 263.128 87.9211 244.008C87.8808 239.53 59.3668 215.045 54.2852 204.839C49.2035 194.674 47.5902 186.283 53.1156 186.283C58.6409 186.364 82.1941 178.296 82.1941 178.296Z" fill="#4A75DD"/>
<path d="M139.222 209.156C136.802 210.164 132.527 205.646 132.366 203.912C132.164 202.177 135.753 178.781 140.795 177.53C145.836 176.28 155.999 173.9 159.065 174.908C162.13 175.917 164.59 178.619 163.703 180.112C162.775 181.604 139.222 209.156 139.222 209.156Z" fill="#282A35"/>
<path d="M137.932 209.438C134.988 207.864 139.706 183.177 144.748 181.927C149.789 180.676 163.945 176.925 163.945 179.95C163.945 183.016 159.63 202.499 156.323 204.637C149.95 208.712 137.932 209.438 137.932 209.438Z" fill="#151823"/>
<path d="M122.121 193.464C119.983 190.842 118.935 187.211 117.684 181.927C117.402 180.717 117.241 179.587 117.241 178.538C117.16 173.536 120.669 170.551 124.097 169.18C127.565 167.728 131.356 167.163 133.736 166.235C134.785 165.832 135.914 166.356 136.277 167.405C136.64 168.454 136.116 169.583 135.067 169.987C132.082 171.076 128.412 171.681 125.67 172.851C122.887 174.182 121.435 175.352 121.354 178.377C121.354 179.063 121.435 179.87 121.677 180.838C122.847 185.961 123.936 189.188 125.307 190.761C126.597 192.294 128.09 192.859 131.76 192.778C132.042 192.778 132.324 192.738 132.647 192.738C136.599 192.455 144.666 190.963 151.885 189.188C158.902 187.534 165.718 185.235 166.646 184.347C167.13 184.146 168.017 181.846 168.017 179.022C168.259 173.577 165.718 166.8 162.694 166.316C162.21 166.195 161.484 166.114 160.637 166.114C157.33 166.114 152.772 167.324 152.772 167.365C151.724 167.647 150.675 167.042 150.433 165.953C150.191 164.904 150.796 163.815 151.845 163.532C151.925 163.532 156.644 162.242 160.717 162.201C161.766 162.201 162.774 162.282 163.742 162.564C169.913 164.622 171.687 172.73 171.687 178.982C171.566 182.33 171.042 185.396 168.824 187.373C166.243 189.349 159.951 191.124 152.611 193.02C145.23 194.876 137.245 196.408 132.728 196.731C132.405 196.771 132.082 196.771 131.76 196.771C131.679 196.771 131.598 196.771 131.518 196.771C127.485 197.014 124.258 196.086 122.121 193.464Z" fill="#282A35"/>
<path d="M60.3337 336.505C61.3823 339.127 59.6884 342.233 56.6232 343.403L8.62944 362.16C5.56429 363.37 3.38642 361.918 2.37814 359.296L1.77318 357.723C0.764908 355.101 1.28921 352.277 4.31403 351.067L52.3482 332.35C55.4133 331.18 58.7204 332.31 59.7287 334.932L60.3337 336.505Z" fill="#96A6BC"/>
<path d="M14.3569 356.714C14.3569 352.68 11.2111 348.364 8.6702 348.808L3.14487 350.623C3.1852 350.623 3.1852 350.623 3.22553 350.663C1.12832 351.591 -0.0412745 353.608 -0.000943541 356.19C0.0393874 359.82 2.0156 363.007 5.52439 363.209C6.452 363.249 7.37961 363.088 8.18623 362.765H8.22656L13.3486 360.708C14.3569 359.417 14.3165 358.287 14.3569 356.714Z" fill="#151823"/>
<path d="M8.46804 355.948C9.194 358.691 8.1454 361.353 6.08852 361.918C4.03164 362.483 1.81344 360.668 1.04715 357.924C0.321198 355.181 1.3698 352.519 3.42668 351.954C5.48356 351.43 7.74209 353.205 8.46804 355.948Z" fill="#282A35"/>
<path d="M7.09631 356.15C7.66095 358.126 7.01565 360.103 5.68473 360.546C4.35381 360.99 2.82124 359.74 2.2566 357.763C1.69197 355.786 2.33726 353.81 3.66819 353.366C4.99911 352.882 6.53168 354.133 7.09631 356.15Z" fill="#96A6BC"/>
<path d="M60.3341 336.424L59.7291 334.851C58.7209 332.228 55.3734 331.059 52.3486 332.269L49.9287 333.197C52.0663 333.721 53.9215 335.335 54.7684 337.634C55.696 340.135 55.0911 342.797 53.4778 344.572L56.664 343.322C59.6888 342.152 61.3424 339.086 60.3341 336.424Z" fill="#151823"/>
<path d="M172.131 355.786C173.3 358.328 171.889 361.514 168.904 362.926L122.161 384.709C119.176 386.081 116.918 384.79 115.748 382.248L115.022 380.716C113.812 378.174 114.175 375.31 117.119 373.898L163.863 352.115C166.848 350.744 170.195 351.672 171.405 354.213L172.131 355.786Z" fill="#96A6BC"/>
<path d="M127.526 378.9C127.284 374.907 123.856 370.792 121.315 371.397L115.91 373.575C115.951 373.575 115.951 373.575 115.991 373.575C113.975 374.665 112.966 376.762 113.168 379.344C113.45 382.974 115.628 386 119.137 386C120.064 386 120.952 385.798 121.799 385.395H121.839L126.8 383.015C127.727 381.603 127.606 380.514 127.526 378.9Z" fill="#151823"/>
<path d="M121.597 378.537C122.484 381.24 121.637 383.943 119.621 384.628C117.604 385.314 115.265 383.66 114.337 380.998C113.41 378.295 114.337 375.593 116.313 374.907C118.33 374.221 120.709 375.835 121.597 378.537Z" fill="#282A35"/>
<path d="M120.265 378.819C120.951 380.756 120.467 382.773 119.136 383.337C117.845 383.862 116.232 382.732 115.547 380.756C114.861 378.819 115.385 376.803 116.676 376.278C117.966 375.713 119.58 376.883 120.265 378.819Z" fill="#96A6BC"/>
<path d="M172.091 355.706L171.365 354.173C170.156 351.632 166.808 350.663 163.824 352.075L161.484 353.164C163.662 353.568 165.638 355.02 166.606 357.279C167.655 359.74 167.252 362.402 165.759 364.298L168.865 362.846C171.809 361.474 173.261 358.287 172.091 355.706Z" fill="#151823"/>
<path d="M132.406 369.178C136.883 369.905 149.587 362.966 153.136 360.748C155.999 358.933 164.146 340.417 152.37 325.29C145.876 316.98 97.2776 282.41 64.7709 282.894C48.2352 283.136 21.7781 293.302 29.6426 307.42C37.4668 321.579 132.406 369.178 132.406 369.178Z" fill="#282A35"/>
<path d="M52.6714 288.381C52.752 288.945 53.72 289.309 54.8089 289.147L59.7293 288.461C60.8585 288.3 61.6652 287.735 61.5845 287.13L51.7841 217.264C51.7034 216.699 50.7758 215.57 49.6869 215.691L45.0891 215.207C43.8389 215.086 43.0726 215.691 43.1533 216.255L52.6714 288.381Z" fill="#96A6BC"/>
<path d="M52.0258 217.344L61.6246 287.211C61.7053 287.775 60.8583 288.38 59.7694 288.542L57.5108 288.864L47.1055 215.569L50.2513 215.811C51.3402 216.094 51.9452 216.739 52.0258 217.344Z" fill="#B6C2D3"/>
<path d="M134.503 369.421C148.417 363.733 149.183 343.16 140.794 331.26C134.543 322.386 64.8914 275.593 35.9338 290.599C13.9132 302.015 10.243 346.629 42.7498 355.544C75.2565 364.459 134.503 369.421 134.503 369.421Z" fill="#151823"/>
<path d="M142.488 299.03C142.407 299.595 141.48 299.958 140.351 299.837L135.43 299.232C134.301 299.111 133.454 298.546 133.535 297.941L145.957 193.625C146.037 193.06 146.924 191.891 148.054 192.012L152.611 191.447C153.861 191.285 154.628 191.891 154.547 192.455L142.488 299.03Z" fill="#96A6BC"/>
<path d="M145.755 193.666L133.534 297.981C133.454 298.546 134.341 299.151 135.43 299.272L137.688 299.555L150.635 191.81L147.529 192.133C146.4 192.415 145.835 193.061 145.755 193.666Z" fill="#B6C2D3"/>
<path d="M135.391 322.466C133.132 321.014 126.639 315.689 126.841 314.358C127.002 313.067 131.559 289.792 133.213 289.953C134.907 290.115 138.617 291.244 140.311 291.446C142.449 291.728 135.391 322.466 135.391 322.466Z" fill="#282A35"/>
<path d="M144.264 321.014C144.708 313.955 145.232 291.809 145.232 291.809L139.465 291.366C139.465 291.366 134.988 320.409 134.423 321.781C133.173 324.726 144.264 321.014 144.264 321.014Z" fill="#151823"/>
<path d="M62.5527 328.76C62.5527 322.508 67.1101 317.425 72.7968 317.425C78.4431 317.425 83.0408 322.508 83.0408 328.76C83.0408 335.013 78.4834 340.095 72.7968 340.095C67.1101 340.095 62.5527 335.013 62.5527 328.76Z" fill="#96A6BC"/>
<path d="M68.4414 327.792C68.4414 325.331 70.2563 323.314 72.4745 323.314C74.6927 323.314 76.5076 325.291 76.5076 327.792C76.5076 330.253 74.6927 332.229 72.4745 332.229C70.2563 332.229 68.4414 330.253 68.4414 327.792Z" fill="#151823"/>
<path d="M72.473 328.357C72.1504 327.671 72.4327 326.864 73.1183 326.501C73.1183 326.501 77.5547 324.363 82.3944 321.862C86.9921 319.482 92.1142 316.618 93.6871 315.287C91.7915 312.463 88.1214 307.703 88.1214 307.703C87.6374 307.098 87.7584 306.251 88.3634 305.767C88.9684 305.283 89.8153 305.404 90.2993 306.009C90.2993 306.009 94.6147 311.616 96.4296 314.44C96.5909 314.722 96.6716 315.004 96.6716 315.327C96.4699 316.699 95.8649 316.9 95.2196 317.505C94.5744 318.03 93.6871 318.635 92.6385 319.28C90.5413 320.571 87.8391 322.064 85.1369 323.476C79.6922 326.34 74.2879 328.921 74.2879 328.921C74.0862 329.002 73.8846 329.042 73.6829 329.042C73.199 329.123 72.715 328.841 72.473 328.357Z" fill="#96A6BC"/>
<path d="M105.667 307.905L73.6445 307.582C72.5152 309.357 72.9185 309.397 73.2815 311.656C73.5235 313.189 79.6135 317.223 82.1947 316.86C84.7758 316.497 104.861 311.091 104.861 311.091L105.667 307.905Z" fill="#B6C2D3"/>
<path d="M105.708 308.268C99.0128 309.76 86.5506 313.431 83.2031 314.157C79.8556 314.924 74.8949 310.93 73.4027 308.349C71.9105 305.726 92.3986 301.531 97.5609 301.047C102.643 300.523 105.708 308.268 105.708 308.268Z" fill="#96A6BC"/>
<path d="M33.8373 200.402C29.4009 204.839 26.2147 208.026 28.7556 212.503C31.2964 216.981 45.5333 220.369 50.8166 222.467C57.1889 225.008 77.1124 225.856 69.4898 216.295C61.8269 206.735 33.8373 200.402 33.8373 200.402Z" fill="#96A6BC"/>
<path d="M104.577 226.259C104.376 229.244 86.3882 275.876 86.4286 286.727C86.4689 297.578 77.5154 293.746 77.5154 293.746L76.8701 287.05C76.8701 287.05 74.7326 255.949 79.411 245.34C84.0894 234.771 104.577 226.259 104.577 226.259Z" fill="#D8A798"/>
<path d="M87.2352 284.831C88.0418 281.967 77.0718 285.396 75.6198 283.54C77.7574 288.663 72.958 293.02 72.958 293.826C72.958 294.633 83.2021 300.966 83.2021 300.966L88.9694 298.707C88.9694 298.748 86.9125 286.041 87.2352 284.831Z" fill="#E8E9EA"/>
<path d="M98.1651 306.775C98.4877 308.711 99.5363 313.754 96.5922 315.125C92.8011 316.86 85.5012 315.125 82.6377 312.302C79.4112 309.155 76.1041 303.83 72.7566 301.814C69.5301 299.837 72.7969 293.826 72.7969 293.826L85.9045 310.043L98.1651 306.775Z" fill="#96A6BC"/>
<path d="M91.2279 299.877C89.9373 297.054 92.8411 286.122 87.6788 286.404C82.5164 286.687 78.685 286.969 79.6126 291.406C80.5402 295.803 80.5402 302.056 80.5402 302.056L91.2279 299.877Z" fill="#8ACDFF"/>
<path d="M71.7884 298.667C77.838 303.024 81.7501 310.93 88.0417 312.745C97.2372 315.367 100.988 311.656 97.5598 305.081C95.5836 301.249 93.6074 299.998 90.7036 294.996C90.7036 294.996 90.3406 294.996 90.2196 296.005C90.2599 296.731 91.9135 297.416 87.0335 297.901C85.0976 298.102 75.5392 299.353 74.0469 290.559C72.9176 291.285 70.3365 297.618 71.7884 298.667Z" fill="#8ACDFF"/>
<path d="M85.2997 303.669C87.3163 303.145 90.5427 301.652 92.1156 301.733C92.6399 301.773 92.8416 301.854 92.9223 302.137C93.0029 302.379 93.2449 302.5 93.4869 302.419C93.7289 302.338 93.8499 302.096 93.7692 301.854C93.5272 301.128 92.8013 300.846 92.156 300.886C90.5024 300.846 88.0422 301.894 86.1467 302.54C87.3566 300.967 89.7764 300.362 92.4383 299.878C92.5996 299.837 92.7206 299.757 92.7609 299.636C92.8013 299.514 92.8013 299.353 92.7609 299.232C92.398 298.587 91.7123 298.345 90.9864 298.345C88.6875 298.304 84.9367 299.999 82.8395 300.12C83.8881 297.014 87.4373 297.094 90.2201 296.933C90.4621 296.933 90.6637 296.691 90.6637 296.449C90.6637 296.207 90.4217 296.005 90.1798 296.045C87.4373 296.207 82.9202 296.005 81.8313 300.442C81.7909 300.563 81.8312 300.684 81.9119 300.805C81.9926 300.926 82.1136 300.967 82.2749 301.007C82.3152 301.007 82.3959 301.007 82.4765 301.007C84.8561 301.047 88.9698 299.151 91.0267 299.232H91.067C88.4052 299.757 85.9047 300.644 84.8964 303.105C84.8157 303.266 84.8561 303.427 84.9771 303.589C85.0577 303.669 85.1787 303.75 85.2997 303.75C85.219 303.669 85.2594 303.669 85.2997 303.669Z" fill="white"/>
<path d="M46.1376 168.575C40.2089 177.046 30.2472 195.723 33.393 206.332C38.4747 223.315 86.4282 221.62 90.6629 222.467C90.6629 222.467 81.3465 231.221 79.0879 238.684C75.4581 250.866 77.1924 255.545 77.1924 255.545L93.849 258.53C93.849 258.53 102.803 237.151 105.626 229.688C108.691 221.499 108.892 215.247 102.964 211.011C97.0352 206.776 75.5791 197.215 73.6836 195.723C70.0941 192.899 81.7498 180.435 74.9742 174.505C68.1986 168.575 46.1376 168.575 46.1376 168.575Z" fill="#4A75DD"/>
<path d="M104.295 121.339C109.175 123.235 112.2 130.576 114.418 133.763C118.975 140.338 127.566 148.204 127.566 148.204C127.566 148.204 146.763 159.58 152.047 159.741C152.047 159.741 157.854 160.225 158.701 160.992C159.952 162.081 160.557 162.968 160.395 164.259C160.194 165.55 159.911 167.244 159.024 166.72C158.782 166.558 159.508 165.308 159.347 164.219C159.226 163.291 158.379 162.403 158.379 162.403C158.379 162.403 159.508 163.251 159.306 164.38C159.145 165.469 158.903 167.688 157.975 167.486C157.249 167.365 158.701 165.509 158.016 164.38C157.088 162.928 156.846 162.242 156.846 162.242C156.846 162.242 158.379 163.573 158.177 165.025C157.975 166.518 156.886 168.293 156.282 168.132C155.798 168.01 156.765 166.397 156.846 165.066C156.927 163.896 155.394 163.291 155.152 163.089C154.91 162.847 156.564 163.896 156.604 165.066C156.685 167.042 155.031 168.535 154.547 168.051C154.063 167.607 155.314 166.679 155.031 165.267C154.991 165.025 153.741 164.219 152.934 163.896C151.643 163.412 150.837 164.138 150.837 164.138C150.837 164.138 149.466 165.631 150.474 166.679C151.805 168.091 152.692 168.131 152.531 168.535C152.127 169.463 149.062 168.091 148.014 166.76C147.005 165.469 146.763 163.775 146.763 163.775C146.763 163.775 124.057 160.386 120.226 157.724C113.45 153.045 98.7696 138.846 97.842 136.708C96.9547 134.893 104.295 121.339 104.295 121.339Z" fill="#CC9483"/>
<path d="M106.473 124.646C106.231 121.217 104.012 119.12 103.811 117.627C103.165 112.545 109.215 111.213 113.692 109.56C113.692 109.56 96.2285 87.0102 95.2606 93.8275C94.4539 99.1522 86.7507 115.893 82.395 118.353C74.2078 123.033 71.062 132.795 75.3774 139.854C78.3216 144.654 98.6483 146.187 99.0517 146.066C100.181 145.622 107.037 131.867 106.473 124.646Z" fill="#CC9987"/>
<path d="M88.5659 110.205L80.7417 112.626C81.871 112.141 61.0199 119.322 51.4615 155.788C49.3643 163.856 34.9258 186.122 34.9258 186.122C34.9258 186.122 46.0571 178.7 67.0695 187.413C75.8617 191.044 87.7593 189.632 87.7593 189.632C87.7593 189.632 79.2898 186.243 95.7045 165.429C95.7045 165.429 104.779 160.83 106.836 152.803C108.852 144.937 109.457 125.695 108.409 124.203C107.804 123.315 104.295 118.636 104.295 118.636C104.295 118.636 106.191 137.111 102.077 136.143C95.3818 134.65 88.5659 110.205 88.5659 110.205Z" fill="#7F1C5C"/>
<path d="M76.2648 119.322C89.6144 123.477 95.543 148.245 99.1728 150.947C103.206 153.932 119.298 164.945 122.202 165.429C125.146 165.953 130.55 166.478 131.801 167.809C133.091 169.18 132.728 171.48 132.728 171.48C132.728 171.48 131.034 174.908 130.51 174.949C130.026 174.989 131.397 172.609 131.236 171.48C131.034 170.31 129.098 168.898 129.098 168.898C129.098 168.898 129.784 169.019 130.268 171.52C130.631 173.335 129.018 174.989 128.13 175.473C126.84 176.199 128.614 173.335 128.493 172.448C128.13 170.108 126.517 169.624 126.517 169.624C126.517 169.624 127.929 170.794 128.211 172.125C128.655 174.061 126.678 175.513 126.396 175.433C125.307 175.231 126.517 173.496 126.275 172.569C125.872 171.117 124.38 170.471 124.38 170.471C124.38 170.471 125.267 171.641 125.791 172.69C126.638 174.344 125.469 175.473 124.944 175.352C124.42 175.312 125.025 173.456 123.815 172.891C122.605 172.286 120.589 171.923 119.056 172.004C117.523 172.125 116.273 170.915 115.386 170.592C114.499 170.269 97.4789 167.083 88.5657 160.709C84.8956 158.087 66.8274 136.103 67.6743 127.914C68.481 119.765 76.2648 119.322 76.2648 119.322Z" fill="#D8A798"/>
<path d="M92.315 88.0593C92.436 75.9981 100.421 71.7222 110.02 71.8029C119.619 71.8836 125.023 79.1042 124.902 91.1654C124.862 93.4647 123.087 94.4732 122.724 96.5708C122.966 97.7003 123.854 100.766 124.459 102.299C124.499 103.267 122.644 104.477 121.273 104.638C119.014 110.488 117.038 115.57 110.585 113.513C101.47 110.649 92.2343 100.161 92.315 88.0593Z" fill="#CC9987"/>
<path d="M119.135 88.7449L124.176 84.0656C128.209 78.4182 114.255 65.9536 101.188 69.4631C89.0481 72.7708 87.0316 77.5308 86.5879 84.8724C86.104 93.2225 89.7741 105.284 89.7741 105.284C89.7741 105.284 92.3956 107.301 97.5983 106.333C101.712 105.606 108.004 100.887 107.116 99.8783C105.866 98.5068 106.31 92.9401 108.81 92.5367C110.02 92.335 111.512 94.3116 111.512 94.3116L119.135 88.7449Z" fill="#A0593A"/>
<path d="M89.4121 78.1761C87.5972 76.8046 81.5072 75.0297 77.3128 80.2737C73.1184 85.5177 69.6903 106.978 81.6686 121.298C93.1629 135.053 87.3552 140.055 85.2983 140.297C91.3077 141.387 96.1474 135.901 94.9374 126.623C93.2435 113.795 89.0895 110.608 85.379 93.6661C83.9271 87.0102 86.226 84.3479 87.2746 83.8638C88.2828 83.4604 89.4121 78.1761 89.4121 78.1761Z" fill="#A0593A"/>
<path d="M81.992 195.4C83.5649 196.046 104.9 209.721 108.086 212.262C111.272 214.803 113.006 223.395 108.086 229.446C105.384 232.754 94.5752 259.055 94.5752 259.055L91.7117 258.409C91.7117 258.409 100.504 235.013 103.488 230.092C105.707 226.421 108.086 218.474 103.65 214.642C99.2133 210.81 72.1512 195.723 57.1885 194.755C69.2474 193.787 81.992 195.4 81.992 195.4Z" fill="#6597EF"/>
<path d="M214.997 350.825C213.303 353.164 214.513 356.472 217.578 358.368C224.797 362.886 236.413 357.117 239.921 354.415C243.229 351.873 250.811 351.631 252.505 349.735C255.247 346.549 253.271 335.577 253.271 335.577L235.485 347.92L214.997 350.825Z" fill="#151823"/>
<path d="M252.787 332.672C251.981 331.583 248.875 336.181 246.738 336.706C241.737 337.916 242.301 335.092 241.737 333.479C238.631 328.356 233.509 333.196 233.509 333.196C230.404 338.723 223.184 342.192 217.377 347.597C208.706 355.625 221.491 359.497 233.59 354.132C242.624 350.139 243.632 348.888 251.9 347.032C256.175 346.105 254.118 333.559 252.787 332.672Z" fill="#282A35"/>
<path d="M235.203 347.113C233.065 346.185 229.758 344.007 228.024 343.805C227.419 343.765 227.217 343.845 227.096 344.128C226.975 344.41 226.653 344.491 226.411 344.33C226.169 344.209 226.048 343.886 226.209 343.644C226.613 342.877 227.459 342.676 228.185 342.797C230.041 343.039 232.581 344.652 234.558 345.661C233.509 343.684 230.968 342.595 228.105 341.627C227.943 341.587 227.822 341.466 227.782 341.304C227.742 341.143 227.782 340.981 227.863 340.86C228.347 340.175 229.194 340.054 230 340.134C232.581 340.497 236.413 342.998 238.712 343.482C238.066 339.852 234.154 339.328 231.089 338.722C230.807 338.642 230.646 338.359 230.686 338.117C230.726 337.835 231.009 337.633 231.251 337.714C234.275 338.359 239.317 338.884 239.76 344.047C239.76 344.209 239.72 344.33 239.599 344.451C239.478 344.572 239.357 344.612 239.196 344.612C239.115 344.572 239.034 344.572 238.954 344.572C236.292 344.209 232.138 341.425 229.839 341.143C229.839 341.143 229.839 341.143 229.799 341.143C232.622 342.232 235.243 343.563 235.929 346.548C235.969 346.71 235.929 346.911 235.768 347.032C235.606 347.113 235.485 347.153 235.364 347.153C235.284 347.153 235.243 347.153 235.203 347.113Z" fill="#151823"/>
<path d="M249.923 265.428L248.632 174.182L244.196 154.335L218.666 142.032C216.327 147.276 211.084 171.52 210.923 180.878C210.277 210.325 221.288 258.288 222.135 259.619C222.135 259.619 228.184 272.366 228.184 284.427C228.184 296.529 226.692 338.562 226.692 338.562C226.692 338.562 255.246 343.322 256.134 339.853C256.94 336.383 252.907 283.621 249.923 265.428Z" fill="#151823"/>
<path d="M308.805 352.115C309.934 351.994 313.363 356.956 310.62 359.86C309.813 360.707 307.797 361.837 306.022 362.119C297.19 363.652 291.624 361.111 288.236 358.085C284.445 354.697 278.355 356.109 276.419 354.737C271.781 351.429 276.137 342.394 276.137 342.394L291.1 354.536L308.805 352.115Z" fill="#282A35"/>
<path d="M275.815 352.115C285.333 353.285 285.131 354.011 292.996 357.158C303.401 361.272 314.532 358.045 309.007 351.712C306.224 348.485 296.383 344.733 294.367 335.415C294.367 335.415 280.211 335.455 278.235 335.697C274.847 337.553 271.459 351.631 275.815 352.115Z" fill="#151823"/>
<path d="M292.754 350.098C295.053 349.13 298.642 346.871 300.498 346.71C301.143 346.67 301.385 346.75 301.506 347.033C301.667 347.315 301.99 347.436 302.232 347.315C302.514 347.154 302.595 346.831 302.474 346.549C302.111 345.742 301.183 345.54 300.377 345.621C298.4 345.863 295.618 347.476 293.52 348.525C294.73 346.428 297.473 345.338 300.538 344.37C300.699 344.33 300.861 344.209 300.901 344.048C300.941 343.886 300.941 343.725 300.82 343.563C300.296 342.837 299.449 342.716 298.562 342.797C295.86 343.12 291.665 345.661 289.165 346.145C289.971 342.313 294.125 341.869 297.433 341.224H297.392C297.715 341.183 297.917 340.901 297.836 340.619C297.796 340.336 297.513 340.135 297.231 340.215C293.964 340.82 288.6 341.305 287.995 346.75C287.995 346.912 288.035 347.073 288.156 347.194C288.277 347.315 288.439 347.355 288.56 347.355C288.64 347.355 288.721 347.355 288.842 347.315C291.706 346.992 296.223 344.128 298.683 343.886C298.683 343.886 298.683 343.886 298.723 343.886C295.658 344.935 292.794 346.387 292.028 349.453C291.988 349.655 292.028 349.856 292.19 350.018C292.311 350.098 292.472 350.179 292.633 350.139C292.674 350.139 292.714 350.098 292.754 350.098Z" fill="#282A35"/>
<path d="M287.43 269.946C287.309 264.258 285.293 219.401 284.083 192.98C283.115 170.995 278.396 153.085 275.372 145.017L234.557 149.333C236.815 165.63 243.147 176.965 244.72 188.381C251.254 230.253 260.852 263.613 261.538 269.26C264.16 293.705 268.515 349.493 270.612 347.557C275.936 342.394 281.663 341.547 290.899 340.458C294.287 340.619 298.441 339.409 298.441 339.167C299.409 339.853 287.511 273.415 287.43 269.946Z" fill="#151823"/>
<path d="M271.701 158.006C274.282 163.613 281.623 226.581 280.332 246.872C279.041 267.162 277.751 268.897 277.307 270.591C276.864 272.325 282.712 269.945 282.712 277.69C282.712 285.476 287.672 316.294 288.963 327.105C289.487 331.381 288.963 341.788 288.963 341.788L298.441 339.207C298.441 339.207 288.963 286.162 288.519 272.325C288.076 258.53 290.657 244.693 285.938 202.862C281.179 161.031 277.751 156.715 277.751 156.715L271.701 158.006Z" fill="#282A35"/>
<path d="M196.848 79.0228C193.541 90.4386 180.07 107.139 182.652 113.028C185.233 118.918 186.322 125.937 192.654 124.605C199.026 123.274 211.569 103.024 215.884 94.7549C220.2 86.4855 196.848 79.0228 196.848 79.0228Z" fill="#CC9483"/>
<path d="M254.803 30.6973C255.247 43.8477 254.803 46.8328 261.7 51.3104C266.015 54.0937 270.209 53.7307 270.209 53.7307C270.209 53.7307 253.27 77.6918 242.946 76.885C232.621 76.0783 220.401 60.6286 219.15 58.1276C223.224 55.7073 225.845 55.0215 228.507 52.3995C232.863 48.0833 232.419 36.9498 233.266 33.5614C234.073 30.0923 254.803 30.6973 254.803 30.6973Z" fill="#CC9483"/>
<path d="M214.796 116.579C214.715 111.173 206.447 97.8212 206.528 92.8595C206.851 71.0767 203.302 59.8222 206.609 58.6524C216.691 54.9816 229.275 50.5443 229.275 50.5443C229.275 50.5443 232.299 61.7585 239.922 64.1384C257.748 69.7455 261.943 48.4871 261.943 48.4871C261.943 48.4871 269.404 50.2216 282.955 56.3531C288.158 58.6927 280.334 78.0149 280.374 84.1867C280.374 88.9063 277.672 105.001 276.059 110.084C274.445 115.167 281.664 141.145 283.802 167.446C284.246 172.649 208.585 175.836 208.746 169.18C209.15 151.108 215.078 138.2 214.796 116.579Z" fill="#66BCF7"/>
<path d="M289.81 65.4695C301.869 75.3524 309.25 112.383 310.097 119.604C310.702 124.808 306.306 125.372 306.306 125.372C306.306 125.372 302.797 130.011 292.311 131.625C278.679 133.722 276.663 132.553 272.589 134.045C268.516 135.538 268.233 122.71 268.233 122.71C276.138 121.742 276.663 119.725 283.277 116.578C287.31 114.642 288.883 114.037 290.375 113.19C290.375 113.19 288.923 111.254 286.06 106.211C283.196 101.169 281.22 95.4411 281.018 93.5048C279.97 84.1463 289.81 65.4695 289.81 65.4695Z" fill="#D8A798"/>
<path d="M284.204 57.4014C295.093 54.5373 302.635 88.5428 305.014 93.8675C301.909 96.0054 288.721 104.113 283.357 103.024C280.977 102.54 281.098 97.2559 277.751 94.1902C274.403 91.0438 284.204 57.4014 284.204 57.4014Z" fill="#66BCF7"/>
<path d="M206.568 59.6602C202.857 59.7812 200.236 62.7662 197.655 66.9211C195.074 71.1163 188.984 91.689 187.29 92.3344C185.636 92.9395 202.978 107.824 205.439 106.655C207.899 105.525 210.964 99.3937 211.69 98.0222C212.496 96.6506 206.568 59.6602 206.568 59.6602Z" fill="#66BCF7"/>
<path d="M278.597 56.4334C274.282 59.4588 269.321 75.3118 270.612 83.9443C271.902 92.5768 270.41 98.9503 263.07 99.394C255.73 99.8377 245.284 96.4896 237.5 97.7804C229.757 99.0713 217.012 103.186 214.874 97.135C212.697 91.0842 213.785 82.4518 212.051 72.9722C210.317 63.4926 213.664 58.7327 213.664 58.7327L227.337 52.6819C227.337 52.6819 237.379 67.2441 248.188 63.775C258.956 60.3059 263.513 55.788 263.917 51.9155C264.36 48.0026 278.597 56.4334 278.597 56.4334Z" fill="#8ACDFF"/>
<path d="M221.126 25.5344C221.328 25.494 220.521 24.6469 220.763 24.6469C218.868 21.9846 218.384 17.3053 219.271 13.5538C221.409 4.92136 233.508 0.76649 241.493 3.02545C252.1 6.01051 253.431 10.7301 253.351 20.25C255.69 20.1694 256.577 19.4029 256.94 22.9527C257.263 25.6957 255.085 31.0204 253.593 32.1903C253.996 42.3556 248.148 48.6887 241.977 49.5762C241.453 49.6165 240.888 49.6569 240.364 49.6165C234.637 49.8182 228.103 46.5105 224.917 37.2326C222.82 37.0309 222.377 35.014 220.723 32.2709C218.706 28.8421 218.464 25.8168 221.126 25.5344Z" fill="#CC9483"/>
<path d="M255.125 19.927L251.173 22.8717C251.173 22.8717 250.003 19.7657 248.753 17.3857C248.753 17.3857 248.833 12.3434 243.792 10.2054C239.961 8.63221 226.369 10.4071 224.191 14.6427C222.336 18.1925 223.748 20.5724 223.748 20.5724L222.981 25.7358L220.4 25.6551C220.4 25.6551 216.448 15.1671 219.432 9.19695C222.82 2.50074 238.388 -3.95343 249.721 2.86379C256.254 6.81697 255.125 19.927 255.125 19.927Z" fill="#151823"/>
<path d="M254.197 31.9882C253.753 33.158 254.681 39.0475 253.35 43.404C252.462 46.2277 248.026 52.8029 245.727 54.1341C243.469 55.5056 237.782 55.3846 236.572 55.4249C235.402 55.5056 229.191 48.1237 228.506 46.6715C227.82 45.2193 224.997 37.2322 224.997 37.2322L225.158 34.2472C225.158 34.2472 229.03 43.041 233.91 45.1386C236.693 46.3488 244.154 44.4528 245.929 43.4847C250.486 40.903 251.011 28.7611 251.333 29.4469C252.906 33.037 254.197 31.9882 254.197 31.9882Z" fill="#151823"/>
<path d="M239.436 46.0263C240.242 51.1493 240.807 54.1344 240.484 54.3764C240.161 54.6184 236.975 55.1832 236.128 54.4974C235.281 53.7713 229.07 47.7609 228.667 46.5507C228.224 45.3809 225.521 38.604 225.239 37.5955C225.037 36.7888 225.4 35.0945 225.683 35.8206C225.965 36.5871 229.111 41.9521 232.055 44.8565C233.951 46.6717 239.436 46.0263 239.436 46.0263Z" fill="#282A35"/>
<path d="M241.775 65.1063C241.775 65.1063 248.672 66.5181 255.891 61.5968C264.481 55.7074 263.634 48.8901 263.634 48.8901L261.497 48.0834C261.537 48.1237 261.457 48.8095 259.843 52.4803C257.222 58.6117 250.285 61.7985 244.074 61.9195C244.034 61.8388 233.79 62.1212 230.241 53.6904C229.232 51.2701 229.716 50.7054 230.16 50.2617L227.498 51.8752C227.538 51.8349 226.691 63.0893 241.775 65.1063Z" fill="white"/>
<path d="M260.651 99.4344C261.498 102.137 262.749 107.664 264.442 118.152C264.563 118.636 264.16 120.168 264.241 120.653C266.701 132.794 270.573 146.066 273.114 147.115C268.637 149.777 261.337 150.261 261.337 150.261L260.651 99.4344Z" fill="white"/>
<path d="M252.746 99.3943L260.772 97.7808C260.772 97.7808 266.822 146.873 271.056 147.115C266.055 148.809 265.894 148.648 265.894 148.648L252.746 99.3943Z" fill="#B6C2D3"/>
<path d="M268.838 150.866C268.919 151.27 268.596 151.673 268.193 151.754L229.637 157.603C229.193 157.643 228.83 157.361 228.75 156.958L220.683 103.912C220.603 103.509 220.925 103.106 221.329 103.025L259.885 97.1758C260.288 97.0951 260.692 97.4178 260.772 97.8212L268.838 150.866Z" fill="#AA0031"/>
<path d="M253.713 97.5791C253.754 97.9018 253.633 98.2246 253.391 98.2649L246.535 99.354C246.333 99.3944 246.091 99.1523 246.051 98.8296C246.01 98.5069 246.131 98.1842 246.373 98.1439L253.23 97.0547C253.431 96.9741 253.633 97.2161 253.713 97.5791Z" fill="white"/>
<path d="M246.655 99.3133L253.229 98.2645C253.43 98.2242 253.592 97.9418 253.511 97.5788C253.511 97.5384 253.471 97.4981 253.471 97.4578L246.171 98.6276C246.171 98.6679 246.171 98.7083 246.171 98.7486C246.252 99.0713 246.453 99.3537 246.655 99.3133Z" fill="#B6C2D3"/>
<path d="M236.171 100.403C236.212 100.726 236.091 101.048 235.849 101.048L228.993 102.137C228.791 102.178 228.549 101.936 228.509 101.613C228.468 101.29 228.589 100.968 228.831 100.927L235.688 99.8381C235.889 99.8381 236.131 100.08 236.171 100.403Z" fill="white"/>
<path d="M229.154 102.138L235.728 101.089C235.929 101.049 236.05 100.766 236.01 100.403C236.01 100.363 235.97 100.323 235.97 100.282L228.67 101.452C228.67 101.492 228.67 101.533 228.67 101.573C228.71 101.936 228.912 102.178 229.154 102.138Z" fill="#B6C2D3"/>
<path d="M271.259 122.791C267.992 121.338 266.097 120.007 264.403 119.725C263.999 119.685 264.846 123.678 264.846 123.678C264.846 123.678 261.418 124.808 259.845 125.009C258.232 125.211 256.579 125.09 254.643 124.848C253.554 124.727 250.166 123.839 249.682 124.525C248.795 125.816 252.424 126.34 254.159 127.067C255.933 127.752 258.797 127.43 258.797 127.43C258.797 127.43 257.587 127.672 253.876 127.51C252.949 127.47 247.948 126.098 247.827 127.147C247.585 128.64 252.102 129.769 253.433 130.294C254.764 130.818 258.555 131.02 258.998 131.221C259.442 131.383 254.643 130.979 253.07 130.657C250.408 130.092 248.875 128.72 248.311 129.931C247.988 130.657 251.658 133.238 253.675 133.642C255.651 134.045 258.111 134.449 258.111 134.449C258.111 134.449 251.941 133.077 250.973 133.682C250.005 134.287 253.715 136.143 255.732 136.506C257.627 136.828 259.603 137.313 261.499 137.393C262.588 137.434 270.21 135.699 273.397 134.085C276.583 132.472 287.835 131.907 288.158 129.568C288.48 127.188 284.084 118.878 281.705 120.128C275.292 123.597 271.259 122.791 271.259 122.791Z" fill="#D8A798"/>
<path d="M225.079 112.746C220.723 112.746 216.932 110.931 212.778 108.914C211.891 108.511 211.044 108.067 210.116 107.664C206.567 107.946 204.067 106.938 203.179 106.091C202.494 105.445 202.736 104.88 202.857 104.719C203.018 104.437 203.583 103.549 207.656 105.163C208.543 105.526 209.431 105.889 210.278 106.292C212.617 106.05 215.682 105.122 219.11 102.662C226.168 97.5791 224.797 92.2544 222.901 84.9128C221.53 79.5478 219.957 73.497 221.127 65.994C223.063 53.2873 225.442 51.8352 230.685 49.7375L231.169 50.9477C226.612 52.7629 224.313 53.6907 222.417 66.1957C221.288 73.4566 222.821 79.3864 224.192 84.5901C226.128 92.1737 227.66 98.1439 219.917 103.711C217.215 105.647 214.674 106.736 212.415 107.26C212.738 107.422 213.061 107.583 213.383 107.704C220.239 111.012 225.684 113.634 234.113 108.632C241.736 104.154 250.77 88.1399 256.739 77.5308C259.32 72.9726 261.337 69.3421 262.708 67.6075C265.37 64.2191 264.926 57.7649 263.152 53.1663C261.7 49.4552 259.522 47.0752 257.183 46.6718L257.384 45.381C260.207 45.865 262.748 48.5274 264.321 52.6823C266.217 57.6439 266.62 64.6225 263.716 68.4143C262.426 70.0682 260.409 73.6583 257.868 78.1762C251.456 89.5517 242.704 105.082 234.759 109.761C231.129 111.94 227.983 112.746 225.079 112.746ZM204.833 105.647C205.196 105.808 205.72 106.01 206.406 106.171C206.487 106.171 206.608 106.212 206.729 106.212C205.922 105.929 205.317 105.728 204.833 105.647Z" fill="#151823"/>
<path d="M278.396 66.3566C279.243 62.8874 282.47 57.9258 285.293 57.9258C288.116 57.9258 290.899 58.5712 296.061 69.7853C301.224 80.9995 305.015 93.8271 305.015 93.8271C305.015 93.8271 297.594 99.1115 296.505 98.8695C295.416 98.6678 288.318 76.4412 284.002 71.0358C281.865 68.4138 278.396 66.3566 278.396 66.3566Z" fill="#8ACDFF"/>
<path d="M182.207 110.971C185.111 105.243 201.849 98.6676 205.801 90.9629C210.52 91.568 214.029 98.5869 214.029 98.5869C214.029 98.5869 202.091 123.072 195.678 125.735C189.265 128.397 185.434 130.938 183.619 128.115C181.804 125.251 181.441 124.807 181.562 120.45C181.683 116.134 182.207 110.971 182.207 110.971Z" fill="#D8A798"/>
<path d="M216.906 76.0431L215.954 76.2189L216.32 78.2023L217.272 78.0265L216.906 76.0431Z" fill="#151823"/>
<path d="M217.497 75.9575C217.578 76.3609 217.295 76.8046 216.852 76.8449L216.166 76.966C215.763 77.0466 215.359 76.7643 215.279 76.3205L214.956 74.5456C214.875 74.1423 215.158 73.7389 215.601 73.6582L216.287 73.5372C216.69 73.4565 217.094 73.7389 217.174 74.1826L217.497 75.9575Z" fill="#282A35"/>
<path d="M225.241 87.0912C224.999 92.2545 221.329 96.2884 217.054 96.0867C212.779 95.885 209.512 91.5284 209.754 86.3651C209.996 81.2017 213.666 77.1679 217.941 77.3696C222.216 77.5712 225.483 81.9278 225.241 87.0912Z" fill="#282A35"/>
<path d="M226.168 87.4537C226.814 86.6066 227.177 85.5981 226.814 84.63C226.693 84.267 225.201 85.0737 224.313 85.5578H224.273C224.878 85.1544 225.725 84.509 226.088 84.0249C226.612 83.2585 226.047 82.4921 225.604 82.0887C225.16 81.645 222.579 83.5812 221.409 84.146L213.021 85.8805C213.021 85.8805 211.085 83.0568 211.609 81.6853C212.698 78.8616 211.246 76.885 210.318 79.749C209.35 82.6131 207.253 85.0737 206.648 86.8486C206.084 88.6235 205.398 91.891 204.914 93.3028L212.012 100.523C212.012 100.523 224.555 96.2475 225.402 93.7465C226.814 92.6574 226.612 91.0439 226.37 90.2371C227.58 88.3008 226.572 87.6554 226.168 87.4537Z" fill="#D8A798"/>
</g>
<defs>
<clipPath id="clip0_4957_2997">
<rect width="312" height="386" fill="white"/>
</clipPath>
</defs>
</svg>
